<svg width="440" height="109" viewBox="0 0 440 109" fill="none" xmlns="http://www.w3.org/2000/svg">
<path d="M184.771 104.913V34.4505H184.249L156.064 104.913H145.103L116.918 34.4505H116.396V104.913H103.348V9.39708H120.05L150.323 85.6011H150.845L181.118 9.39708H198.342V104.913H184.771ZM271.936 104.913H258.366V92.9083H257.844C254.19 101.259 246.883 105.957 236.444 105.957C221.307 105.957 212.434 96.04 212.434 79.8597V34.9724H226.527V77.25C226.527 87.6889 231.746 93.4303 241.141 93.4303C251.58 93.4303 257.322 86.1231 257.322 75.1622V34.9724H271.414L271.936 104.913ZM310.56 33.9285C326.74 33.9285 336.657 42.8016 337.179 55.8502H324.131C323.087 49.0649 318.389 44.8894 310.56 44.8894C302.731 44.8894 297.511 48.543 297.511 54.2844C297.511 58.46 300.643 61.5916 307.95 63.1575L318.911 65.7672C333.004 68.8989 338.223 74.6403 338.223 84.5572C338.223 97.0839 326.74 105.957 310.56 105.957C293.336 105.957 282.897 97.6059 281.853 84.0353H295.946C296.989 91.3425 302.209 94.9961 310.56 94.9961C318.911 94.9961 324.131 91.3425 324.131 85.6011C324.131 80.9036 321.521 78.2939 314.214 76.728L303.253 74.1183C290.204 70.9866 283.941 64.7233 283.941 54.2844C283.941 42.2796 294.38 33.9285 310.56 33.9285ZM348.662 16.7043C348.662 12.0068 352.316 8.35319 357.013 8.35319C361.711 8.35319 365.364 12.0068 365.364 16.7043C365.364 21.4018 361.711 25.0554 357.013 25.0554C352.316 25.0554 348.662 21.4018 348.662 16.7043ZM349.706 34.9724H363.798V104.913H349.706V34.9724ZM423.3 58.9819C421.734 51.6747 416.515 45.4113 407.12 45.4113C396.159 45.4113 388.852 54.8063 388.852 69.4208C388.852 84.5572 396.159 93.4303 407.12 93.4303C415.993 93.4303 421.212 88.7328 423.3 80.3817H436.871C435.305 94.9961 423.822 105.435 407.12 105.435C387.286 105.435 374.759 91.8645 374.759 69.4208C374.759 47.4991 387.286 33.4066 407.12 33.4066C424.866 33.4066 435.305 44.8894 436.871 58.46L423.3 58.9819ZM60.0262 18.7921C56.3726 22.9677 50.6312 26.6213 44.8898 26.0993C43.8459 19.836 46.9776 13.5726 50.1093 9.91903C53.7629 5.22152 60.0262 2.08984 65.2457 2.08984C65.7676 7.83124 63.6799 14.0946 60.0262 18.7921ZM65.2457 27.1432C68.3774 27.1432 77.7724 28.1871 84.0357 37.5821C83.5138 38.1041 73.0749 44.3674 73.0749 57.4161C73.0749 73.0744 86.6455 78.2939 86.6455 78.2939C86.6455 78.8158 84.5577 85.6011 79.8602 92.9083C75.6846 99.1717 70.9871 105.435 64.2018 105.435C57.4165 105.435 55.3287 101.259 47.4995 101.259C39.6704 101.259 37.0606 105.435 30.7973 105.435C24.012 105.435 18.7925 98.6498 14.617 92.3864C5.74391 79.3378 -1.04138 55.8502 8.35364 40.1919C12.5292 32.3627 20.8803 27.1432 29.2315 27.1432C36.0167 27.1432 42.2801 31.8407 45.9337 31.8407C49.5873 31.8407 56.8946 26.6213 65.2457 27.1432Z" fill="white"/>
</svg>
