<svg width="193" height="28" viewBox="0 0 193 28" fill="none" xmlns="http://www.w3.org/2000/svg">
<g clip-path="url(#clip0_2778_1097)">
<path d="M70.3428 25.709H65.4507V8.35821H59.124V4.16485H76.6695V8.35821H70.3428V25.709Z" fill="white"/>
<path d="M96.228 25.71H91.3066V4.16602H96.228V25.71Z" fill="white"/>
<path d="M183.065 21.4589H191.575V25.7109H178.145V4.1668H183.065V21.4589Z" fill="white"/>
<mask id="mask0_2778_1097" style="mask-type:luminance" maskUnits="userSpaceOnUse" x="-135" y="-377" width="817" height="1057">
<path d="M-134.839 679.768H681.166V-376.239H-134.839V679.768Z" fill="white"/>
</mask>
<g mask="url(#mask0_2778_1097)">
<path d="M112.61 4.16094H120.582C126.464 4.16094 132.316 7.27563 132.316 14.8743C132.316 22.0371 126.58 25.7051 120.873 25.7051H112.61V4.16094ZM117.385 21.4824H120.437C124.542 21.4824 127.278 18.921 127.278 14.845C127.278 10.973 124.513 8.3543 120.553 8.3543H117.385V21.4824Z" fill="white"/>
</g>
<path d="M159.623 25.709H165.033L156.157 4.16485H151.077L142.115 25.709H147.378L148.966 21.4583H158.05L159.623 25.709ZM150.285 17.6303L153.53 9.20488L156.745 17.6303H150.285Z" fill="white"/>
<path d="M26.2234 7.30462L19.918 13.6113L13.6113 7.30462L19.918 1.00058L26.2234 7.30462Z" fill="white"/>
<path d="M26.2234 19.9179L19.918 26.2246L13.6113 19.9179L19.918 13.6112L26.2234 19.9179Z" fill="white"/>
<path d="M13.6121 7.30462L7.30537 13.6113L1 7.30462L7.30537 0.999249L13.6121 7.30462Z" fill="white"/>
<path d="M38.8347 7.30462L32.5294 13.6113L26.2227 7.30462L32.5294 0.999249L38.8347 7.30462Z" fill="white"/>
</g>
<defs>
<clipPath id="clip0_2778_1097">
<rect width="192.575" height="27.224" fill="white"/>
</clipPath>
</defs>
</svg>
