<svg width="500" height="146" viewBox="0 0 500 146" fill="none" xmlns="http://www.w3.org/2000/svg">
<g clip-path="url(#clip0_2778_1065)">
<path d="M95.5515 52.5916C104.958 59.3126 116.482 63.2671 128.929 63.2671V39.3286C126.573 39.3291 124.224 39.0836 121.919 38.5956V57.4386C109.474 57.4386 97.9514 53.4841 88.5419 46.7636V95.6151C88.5419 120.053 68.721 139.863 44.272 139.863C35.1495 139.863 26.6705 137.106 19.627 132.379C27.666 140.594 38.877 145.691 51.28 145.691C75.7305 145.691 95.5525 125.881 95.5525 101.442V52.5916H95.5515ZM104.198 28.4406C99.391 23.1911 96.2345 16.4071 95.5515 8.90712V5.82812H88.909C90.581 15.3606 96.284 23.5046 104.198 28.4406ZM35.091 113.626C32.405 110.106 30.9535 105.8 30.96 101.372C30.96 90.1951 40.026 81.1326 51.211 81.1326C53.2955 81.1321 55.3675 81.4511 57.354 82.0811V57.6076C55.0325 57.2896 52.6895 57.1546 50.3475 57.2041V76.2531C48.3595 75.6231 46.2865 75.3031 44.2015 75.3051C33.0165 75.3051 23.951 84.3666 23.951 95.5451C23.951 103.449 28.4825 110.292 35.091 113.626Z" fill="#FF004F"/>
<path d="M88.5413 46.7631C97.9508 53.4836 109.473 57.4381 121.919 57.4381V38.5951C114.972 37.1161 108.822 33.4876 104.198 28.4406C96.2828 23.5041 90.5803 15.3601 88.9083 5.82812H71.4603V101.441C71.4208 112.588 62.3703 121.613 51.2093 121.613C44.6323 121.613 38.7893 118.48 35.0888 113.626C28.4808 110.292 23.9493 103.449 23.9493 95.5456C23.9493 84.3681 33.0148 75.3056 44.1998 75.3056C46.3428 75.3056 48.4083 75.6391 50.3458 76.2536V57.2046C26.3263 57.7006 7.00879 77.3166 7.00879 101.442C7.00879 113.485 11.8193 124.402 19.6268 132.379C26.6703 137.106 35.1493 139.863 44.2718 139.863C68.7213 139.863 88.5418 120.053 88.5418 95.6151V46.7631H88.5413Z" fill="white"/>
<path d="M121.919 38.5945V33.4995C115.654 33.509 109.513 31.7555 104.198 28.4395C108.903 33.588 115.098 37.138 121.919 38.5945ZM88.9085 5.8275C88.749 4.9165 88.6265 3.9995 88.5415 3.079V0H64.4505V95.614C64.412 106.759 55.362 115.785 44.2 115.785C40.923 115.785 37.829 115.007 35.089 113.626C38.7895 118.479 44.6325 121.612 51.2095 121.612C62.3695 121.612 71.4215 112.588 71.4605 101.441V5.8275H88.9085ZM50.347 57.204V51.78C48.334 51.505 46.3045 51.367 44.2725 51.368C19.821 51.3675 0 71.178 0 95.614C0 110.934 7.79 124.436 19.6275 132.378C11.82 124.401 7.0095 113.483 7.0095 101.44C7.0095 77.316 26.3265 57.7 50.347 57.204Z" fill="#00F2EA"/>
<path d="M401.063 119.83C418.557 119.83 432.74 105.762 432.74 88.4103C432.74 71.0588 418.557 56.9883 401.063 56.9883H396.29C413.785 56.9883 427.968 71.0583 427.968 88.4103C427.968 105.762 413.785 119.83 396.29 119.83H401.063Z" fill="#FF004F"/>
<path d="M395.858 56.9883H391.086C373.592 56.9883 359.407 71.0583 359.407 88.4103C359.407 105.762 373.592 119.83 391.086 119.83H395.858C378.362 119.83 364.179 105.762 364.179 88.4103C364.179 71.0588 378.362 56.9883 395.858 56.9883Z" fill="#00F2EA"/>
<path d="M155.031 42.7852V58.7117H173.687V119.399H192.35V59.1417H207.536L212.743 42.7857L155.031 42.7852ZM307.772 42.7852V58.7117H326.428V119.399H345.091V59.1417H360.276L365.483 42.7857L307.772 42.7852ZM216.217 51.8232C216.217 46.8327 220.29 42.7852 225.322 42.7852C230.359 42.7852 234.436 46.8327 234.436 51.8232C234.436 56.8142 230.361 60.8617 225.322 60.8617C220.29 60.8592 216.217 56.8142 216.217 51.8232ZM216.217 67.3197H234.436V119.399H216.217V67.3197ZM242.248 42.7852V119.398H260.474V99.6012L266.116 94.4317L283.904 119.828H303.429L277.826 82.8132L300.824 60.4292H278.695L260.474 78.5057V42.7852H242.248ZM438.812 42.7852V119.398H457.04V99.6012L462.679 94.4317L480.473 119.828H500L474.397 82.8132L497.394 60.4292H475.266L457.04 78.5057V42.7852H438.812Z" fill="white"/>
<path d="M396.289 119.83C413.783 119.83 427.968 105.762 427.968 88.4103C427.968 71.0588 413.783 56.9883 396.289 56.9883H395.856C378.361 56.9883 364.179 71.0583 364.179 88.4103C364.179 105.762 378.361 119.83 395.856 119.83H396.289ZM380.668 88.4103C380.668 79.9698 387.568 73.1328 396.076 73.1328C404.579 73.1328 411.478 79.9698 411.478 88.4103C411.478 96.8508 404.579 103.692 396.076 103.692C387.568 103.69 380.668 96.8508 380.668 88.4103Z" fill="white"/>
</g>
<defs>
<clipPath id="clip0_2778_1065">
<rect width="500" height="145.689" fill="white"/>
</clipPath>
</defs>
</svg>
