<svg width="511" height="100" viewBox="0 0 511 100" fill="none" xmlns="http://www.w3.org/2000/svg">
<g clip-path="url(#clip0_2778_1141)">
<path d="M163.596 74.9998L181.953 24.6426H172.881L158.167 66.1426H156.739L142.524 24.6426H133.31L151.096 74.9998H163.596Z" fill="white"/>
<path d="M205.751 48.9283L227.108 24.6426H216.537L198.679 45.1426H196.608V24.6426H188.037V74.9998H196.608V53.4283H198.751L217.608 74.9998H228.894L205.751 48.9283Z" fill="white"/>
<path d="M257.638 74.9998V36.0712H258.781L272.852 74.9998H280.852L295.21 36.0712H296.352V74.9998H304.71V24.6426H291.567L277.567 62.714H276.424L262.71 24.6426H249.281V74.9998H257.638Z" fill="white"/>
<path d="M331.623 64.6431H330.48L319.551 37.8574H310.765L327.265 77.0003L326.837 78.1431C325.765 81.1431 324.48 82.1431 321.765 82.1431H314.837L315.551 89.6431H321.194C328.051 89.6431 331.765 86.5717 334.265 79.6431L349.48 37.8574H341.123L331.623 64.6431Z" fill="white"/>
<path d="M375.318 56.0712C379.104 55.0712 381.889 51.9998 381.889 47.7855C381.889 41.5712 375.961 37.1426 367.746 37.1426C360.389 37.1426 354.175 40.5712 351.889 47.6426L359.461 48.9283C360.961 45.9998 363.889 44.1426 367.461 44.1426C370.889 44.1426 373.675 45.8569 373.675 48.6426C373.675 51.1426 371.389 52.7855 366.961 52.7855H362.318V59.9283H366.961C372.532 59.9283 374.246 61.7855 374.246 64.1426C374.246 66.9998 371.675 68.7141 366.961 68.7141C362.675 68.7141 360.175 67.2855 358.532 63.9998L350.961 65.2855C352.746 71.4998 358.818 75.7141 367.032 75.7141C376.461 75.7141 382.461 70.8569 382.461 64.7855C382.461 60.1426 379.104 57.2141 375.318 56.0712Z" fill="white"/>
<path d="M404.308 75.0003C413.165 75.0003 419.451 69.5003 419.451 61.7146C419.451 53.9288 413.236 48.4288 404.308 48.4288H398.522V37.8574H390.308V75.0003H404.308ZM432.094 75.0003V37.8574H423.879V75.0003H432.094ZM398.522 55.5717H404.308C408.379 55.5717 411.236 58.0717 411.236 61.7146C411.236 65.3574 408.379 67.8574 404.308 67.8574H398.522V55.5717Z" fill="white"/>
<path d="M475.225 75.0003L458.154 55.7146L473.797 37.8574H464.011L451.582 52.286H449.582V37.8574H441.368V75.0003H449.582V60.2146H451.582L464.44 75.0003H475.225Z" fill="white"/>
<path d="M493.62 37.1426C486.406 37.1426 480.049 40.8569 478.192 47.2855L485.763 48.5712C486.906 46.2855 489.477 44.1426 493.192 44.1426C497.692 44.1426 500.335 47.3569 500.692 52.2141H492.692C481.763 52.2141 476.335 56.9998 476.335 63.8569C476.335 70.7855 481.692 75.7141 489.263 75.7141C495.335 75.7141 499.406 72.2141 501.192 69.1426L502.906 74.9998H508.978V54.1426C508.978 43.3569 503.12 37.1426 493.62 37.1426ZM491.192 68.7855C487.192 68.7855 484.62 66.714 484.62 63.4998C484.62 60.6426 486.692 58.6426 492.978 58.6426H500.763C500.763 64.7141 496.906 68.7855 491.192 68.7855Z" fill="white"/>
<path fill-rule="evenodd" clip-rule="evenodd" d="M7.48236 7.02943C0.663226 13.8486 0.459223 24.6995 0.453125 45.9994C19.5411 45.9993 31.4587 37.8045 41.9124 30.6162C50.0791 25.0007 57.3523 19.9994 66.453 19.9994C79.9984 19.9994 91.8255 29.5768 98.0968 34.6552C98.9811 35.3713 99.755 35.998 100.408 36.4957C100.21 21.3094 99.1446 12.7505 93.4235 7.02943C86.3941 3.33786e-06 75.0804 2.32784e-06 52.4529 3.4969e-07L48.4529 0C25.8255 5.65124e-06 14.5118 4.76837e-06 7.48236 7.02943ZM45.513 99.9994C46.4712 100 47.451 100 48.453 100H52.4529C53.4548 100 54.4346 100 55.3927 99.9994H45.513Z" fill="#0077FF"/>
<path fill-rule="evenodd" clip-rule="evenodd" d="M0.453316 46C19.5413 45.9999 31.4589 37.8051 41.9126 30.6168C50.0792 25.0013 57.3525 20 66.4531 20C79.9986 20 91.8257 29.5774 98.0969 34.6558C98.9813 35.3719 99.7552 35.9986 100.408 36.4963C100.453 39.9693 100.453 43.789 100.453 48.0006V52.0006C100.453 74.628 100.453 85.9417 93.4237 92.9712C86.7054 99.6894 76.0738 99.9868 55.3922 100H45.5139C24.8324 99.9868 14.2008 99.6894 7.48256 92.9712C0.453122 85.9417 0.453123 74.628 0.453125 52.0006L0.453126 48.0006C0.453126 47.3237 0.453126 46.6569 0.453316 46Z" fill="#F45FFF"/>
<path d="M77.9531 50.975C77.9531 48.5035 79.9816 46.5 82.4531 46.5C84.9246 46.5 86.9531 48.5035 86.9531 50.975V69.025C86.9531 71.4964 84.9246 73.5 82.4531 73.5C79.9816 73.5 77.9531 71.4964 77.9531 69.025V50.975Z" fill="white"/>
<path d="M61.9541 39.475C61.9541 37.0035 63.9826 35 66.4541 35C68.9256 35 70.9541 37.0035 70.9541 39.475V80.525C70.9541 82.9965 68.9256 85 66.4541 85C63.9826 85 61.9541 82.9965 61.9541 80.525V39.475Z" fill="white"/>
<path d="M45.9541 50.975C45.9541 48.5035 47.9826 46.5 50.4541 46.5C52.9256 46.5 54.9541 48.5035 54.9541 50.975V69.025C54.9541 71.4964 52.9256 73.5 50.4541 73.5C47.9826 73.5 45.9541 71.4964 45.9541 69.025V50.975Z" fill="white"/>
<path d="M29.9521 57.475C29.9521 55.0035 31.9807 53 34.4521 53C36.9236 53 38.9521 55.0035 38.9521 57.475V62.525C38.9521 64.9965 36.9236 67 34.4521 67C31.9807 67 29.9521 64.9965 29.9521 62.525V57.475Z" fill="white"/>
<path d="M13.9521 57.475C13.9521 55.0035 15.9807 53 18.4521 53C20.9236 53 22.9521 55.0035 22.9521 57.475V62.525C22.9521 64.9965 20.9236 67 18.4521 67C15.9807 67 13.9521 64.9965 13.9521 62.525V57.475Z" fill="white"/>
</g>
<defs>
<clipPath id="clip0_2778_1141">
<rect width="511" height="100" fill="white"/>
</clipPath>
</defs>
</svg>
