<svg width="3443" height="500" viewBox="0 0 3443 500" fill="none" xmlns="http://www.w3.org/2000/svg">
<g clip-path="url(#clip0_2777_994)">
<path d="M2523 193.9C2510.2 258.8 2500.5 337.9 2495.4 370.6H2491.8C2487.7 336.9 2478 258.2 2464.7 194.4L2432 35.5996H2332.4V464.1H2394.2V110.9L2400.3 143.9L2463.1 464.1H2524.9L2586.7 143.9L2593.3 110.7V323V464.1H2655.1V35.5996H2554.5L2523 193.9Z" fill="white"/>
<path d="M2822.3 399.7C2816.7 411.4 2804.4 419.6 2792.2 419.6C2777.9 419.6 2772.3 408.4 2772.3 380.8V151H2701.8V384.9C2701.8 442.6 2720.7 469.2 2762.6 469.2C2791.2 469.2 2814.2 456.4 2830 425.8H2831.5L2837.6 464.1H2892.8V151H2822.3V399.7Z" fill="white"/>
<path d="M3029.1 274.601C3006.1 257.701 2991.8 246.501 2991.8 222.001C2991.8 204.601 3000 194.901 3019.4 194.901C3039.3 194.901 3046 208.701 3046.5 255.701L3105.7 253.101C3110.3 177.001 3085.3 145.301 3020.4 145.301C2960.1 145.301 2930.5 172.401 2930.5 228.001C2930.5 278.601 2955 301.501 2994.9 331.701C3029.1 358.301 3049 373.101 3049 394.501C3049 410.801 3038.8 422.101 3020.9 422.101C3000 422.101 2987.7 402.201 2990.8 367.501L2931 368.501C2921.8 433.401 2947.9 471.201 3017.3 471.201C3078.1 471.201 3109.7 443.101 3109.7 386.901C3109.8 335.901 3084.3 315.401 3029.1 274.601Z" fill="white"/>
<path d="M3216 151H3148.6V464.1H3216V151Z" fill="white"/>
<path d="M3182.8 27.4004C3156.8 27.4004 3144.5 37.1004 3144.5 70.8004C3144.5 105.5 3156.8 114.2 3182.8 114.2C3209.4 114.2 3221.1 105.5 3221.1 70.8004C3221.1 38.6004 3209.4 27.4004 3182.8 27.4004Z" fill="white"/>
<path d="M3442.8 351.201L3381 348.101C3381 403.301 3374.9 421.101 3353.9 421.101C3333 421.101 3329.4 401.201 3329.4 336.301V275.501C3329.4 212.701 3333.5 192.801 3354.4 192.801C3373.8 192.801 3378.9 211.701 3378.9 269.901L3440.2 265.801C3444.3 217.301 3438.2 184.101 3419.3 165.201C3405.5 151.401 3384.6 144.801 3355.5 144.801C3287.1 144.801 3259 181.601 3259 284.701V328.601C3259 434.801 3283 469.001 3353 469.001C3382.6 469.001 3403 462.901 3416.8 449.601C3436.7 431.401 3444.3 399.701 3442.8 351.201Z" fill="white"/>
<path d="M1036.8 454.898C1022.7 445.398 1012.6 430.598 1006.7 410.498C1000.7 390.398 997.801 363.698 997.801 330.298V284.798C997.801 251.098 1001.2 223.998 1008 203.598C1014.8 183.198 1025.4 168.298 1039.9 158.898C1054.4 149.498 1073.4 144.898 1096.9 144.898C1120.1 144.898 1138.6 149.698 1152.6 159.198C1166.6 168.698 1176.8 183.598 1183.2 203.898C1189.7 224.198 1192.9 251.098 1192.9 284.898V330.398C1192.9 363.798 1189.7 390.598 1183.4 410.898C1177.1 431.198 1166.9 445.998 1152.8 455.298C1138.7 464.698 1119.5 469.298 1095.3 469.298C1070.4 469.198 1050.9 464.398 1036.8 454.898ZM1116 405.898C1119.9 395.698 1121.9 378.998 1121.9 355.798V258.198C1121.9 235.698 1119.9 219.298 1116 208.898C1112.1 198.498 1105.2 193.298 1095.3 193.298C1085.8 193.298 1079 198.498 1075.1 208.898C1071.2 219.298 1069.2 235.698 1069.2 258.198V355.798C1069.2 378.998 1071.1 395.598 1074.8 405.898C1078.5 416.098 1085.3 421.198 1095.2 421.198C1105.1 421.198 1112 416.098 1116 405.898Z" fill="white"/>
<path d="M2121.7 331V346.8C2121.7 366.9 2122.3 382 2123.5 392C2124.7 402 2127.2 409.4 2130.9 414C2134.6 418.6 2140.4 420.9 2148.3 420.9C2158.8 420.9 2166.1 416.8 2170 408.6C2173.9 400.4 2176 386.8 2176.4 367.7L2237.2 371.3C2237.5 374 2237.7 377.8 2237.7 382.5C2237.7 411.4 2229.8 433.1 2213.9 447.4C2198.1 461.7 2175.7 468.9 2146.7 468.9C2112 468.9 2087.6 458 2073.7 436.2C2059.7 414.4 2052.8 380.7 2052.8 335.1V280.4C2052.8 233.4 2060 199.1 2074.5 177.5C2089 155.9 2113.7 145.1 2148.8 145.1C2173 145.1 2191.5 149.5 2204.5 158.4C2217.4 167.3 2226.5 181 2231.8 199.8C2237.1 218.5 2239.7 244.4 2239.7 277.4V331H2121.7ZM2130.6 199.2C2127 203.6 2124.6 210.9 2123.5 220.9C2122.3 230.9 2121.7 246.2 2121.7 266.6V289.1H2173.3V266.6C2173.3 246.5 2172.6 231.3 2171.3 220.9C2169.9 210.5 2167.5 203.2 2163.9 198.9C2160.3 194.6 2154.8 192.5 2147.3 192.5C2139.7 192.6 2134.2 194.8 2130.6 199.2Z" fill="white"/>
<path d="M865.1 325.1L784.9 35.5H854.9L883 166.8C890.2 199.2 895.4 226.7 898.8 249.5H900.8C903.2 233.2 908.5 205.7 916.6 167.3L945.7 35.5H1015.7L934.5 325.1V464H865V325.1H865.1Z" fill="white"/>
<path d="M1420.4 151V464.1H1365.2L1359.1 425.8H1357.6C1342.6 454.7 1320.1 469.2 1290.2 469.2C1269.4 469.2 1254.1 462.4 1244.2 448.8C1234.3 435.2 1229.4 413.9 1229.4 384.9V151H1299.9V380.9C1299.9 394.9 1301.4 404.8 1304.5 410.8C1307.6 416.8 1312.7 419.7 1319.8 419.7C1325.9 419.7 1331.8 417.8 1337.4 414.1C1343 410.4 1347.2 405.6 1349.9 399.8V151H1420.4Z" fill="white"/>
<path d="M1782 151V464.1H1726.8L1720.7 425.8H1719.2C1704.2 454.7 1681.7 469.2 1651.8 469.2C1631 469.2 1615.7 462.4 1605.8 448.8C1595.9 435.2 1591 413.9 1591 384.9V151H1661.5V380.9C1661.5 394.9 1663 404.8 1666.1 410.8C1669.2 416.8 1674.3 419.7 1681.4 419.7C1687.5 419.7 1693.4 417.8 1699 414.1C1704.6 410.4 1708.8 405.6 1711.5 399.8V151H1782Z" fill="white"/>
<path d="M1612 92.2H1542V464.1H1473V92.2H1403V35.5H1612V92.2Z" fill="white"/>
<path d="M2015.3 200.999C2011 181.299 2004.1 166.999 1994.6 158.099C1985.1 149.199 1971.9 144.799 1955.3 144.799C1942.4 144.799 1930.3 148.499 1919 155.799C1907.8 163.099 1899.1 172.699 1892.9 184.699H1892.4V19.6992H1824.5V464.099H1882.7L1889.9 434.499H1891.4C1896.8 445.099 1905 453.399 1915.9 459.499C1926.8 465.599 1938.9 468.699 1952.2 468.699C1976 468.699 1993.6 457.699 2004.8 435.799C2016 413.799 2021.7 379.499 2021.7 332.899V283.399C2021.7 248.199 2019.6 220.799 2015.3 200.999ZM1950.7 328.699C1950.7 351.499 1949.8 369.399 1947.9 382.299C1946 395.199 1942.9 404.399 1938.4 409.899C1934 415.399 1928 418.099 1920.5 418.099C1914.7 418.099 1909.3 416.699 1904.4 413.999C1899.5 411.299 1895.5 407.199 1892.4 401.699V223.999C1894.8 215.499 1898.9 208.499 1904.7 203.099C1910.5 197.699 1916.8 194.899 1923.6 194.899C1930.8 194.899 1936.3 197.699 1940.2 203.299C1944.1 208.899 1946.8 218.399 1948.4 231.699C1949.9 244.999 1950.7 263.899 1950.7 288.399V328.699Z" fill="white"/>
<path d="M699.4 78.1C691.2 47.4 667 23.2 636.2 14.9C580.5 0 357.1 0 357.1 0C357.1 0 133.8 0 78.1 14.9C47.4 23.1 23.2 47.3 14.9 78.1C0 133.8 0 250 0 250C0 250 0 366.2 14.9 421.9C23.1 452.6 47.3 476.8 78.1 485.1C133.8 500 357.1 500 357.1 500C357.1 500 580.5 500 636.2 485.1C666.9 476.9 691.1 452.7 699.4 421.9C714.3 366.2 714.3 250 714.3 250C714.3 250 714.3 133.8 699.4 78.1Z" fill="#FF0000"/>
<path d="M285.7 357.1V142.9L471.3 250L285.7 357.1Z" fill="white"/>
</g>
<defs>
<clipPath id="clip0_2777_994">
<rect width="3443" height="500" fill="white"/>
</clipPath>
</defs>
</svg>
