<svg width="643" height="162" viewBox="0 0 643 162" fill="none" xmlns="http://www.w3.org/2000/svg">
<g clip-path="url(#clip0_2778_1118)">
<path d="M31.8671 1.86752C19.3338 6.26752 8.53377 16.9342 4.00044 29.0675C1.33377 36.1342 1.20044 38.5342 1.60044 83.2009L2.00044 130.001L6.00044 137.068C11.0671 146.534 20.9338 155.201 30.2671 158.668C37.4671 161.334 39.7338 161.468 83.8671 161.068L130 160.668L137.067 156.668C146.534 151.601 155.2 141.734 158.667 132.401C161.334 125.201 161.467 122.934 161.067 78.1342L160.667 31.3342L156.667 24.2675C151.6 14.9342 141.734 6.13419 132.534 2.80085C125.734 0.134188 122.4 0.000854221 80.9338 0.000854221C48.2671 0.134188 35.4671 0.534188 31.8671 1.86752ZM129.334 21.3342C132.267 22.8009 136.267 26.5342 138.267 29.6009L142 35.0675L142.4 79.4675C142.8 122.134 142.667 124.134 140 129.334C137.334 134.534 130.4 140.134 124.534 141.868C121.867 142.668 121.467 142.001 120 133.734C111.867 87.0675 76.9338 50.6675 31.7338 41.8675C25.2004 40.6675 20.0004 39.0675 20.0004 38.4009C20.0004 37.7342 21.2004 34.9342 22.6671 32.0009C25.3338 26.9342 30.2671 22.4009 36.1338 20.1342C37.8671 19.4675 58.4004 18.8009 81.7338 18.8009C121.734 18.6675 124.4 18.8009 129.334 21.3342ZM32.0004 60.8009C43.8671 63.6009 60.4004 71.8675 70.4004 80.1342C74.9338 83.8675 78.6671 87.3342 78.6671 87.8675C78.6671 88.4009 81.2004 92.0009 84.2671 96.0009C91.0671 105.068 98.0004 119.868 100.667 130.934C103.6 143.601 104.4 142.801 89.7338 142.401L76.9338 142.001L75.0671 134.134C71.6004 118.801 63.3338 107.601 43.8671 91.6009C41.3338 89.6009 34.9338 86.5342 29.7338 84.9342L20.0004 82.1342V70.4009C20.0004 57.2009 19.2004 57.7342 32.0004 60.8009ZM31.6004 106.668C34.6671 108.001 39.8671 111.601 43.2004 114.668C49.6004 120.534 57.3338 134.268 57.3338 139.601C57.3338 142.534 56.9338 142.668 48.0004 142.668C36.2671 142.668 29.4671 139.468 24.4004 131.734C21.2004 126.934 20.6671 124.668 20.1338 114.268L19.7338 102.401L22.8004 103.334C24.5338 103.868 28.5338 105.334 31.6004 106.668Z" fill="white"/>
<path d="M233.333 27.8683C217.867 32.935 218.667 31.8683 218.667 47.6016V61.335L223.733 56.2683C230.933 49.0683 240.267 44.935 250.267 44.2683C266.533 43.2016 274.667 47.335 274.667 56.535C274.667 67.8683 268.133 72.0016 250.667 72.0016H240V80.6683V89.335H254.667C262.8 89.335 269.333 89.8683 269.333 90.535C269.333 91.2016 270.8 92.135 272.667 92.535C277.6 93.8683 280.533 99.0683 279.6 105.468C278.667 112.135 276 115.335 268.533 118.135C254.4 123.468 229.467 117.068 220 105.602L216 100.668V112.802C216 123.602 216.267 125.202 219.067 127.735C226.667 134.935 244.8 139.468 261.867 138.402C290.4 136.535 306.267 118.668 299.867 95.335C298 88.535 294.133 84.2683 287.067 81.0683C283.867 79.735 281.333 78.135 281.333 77.6016C281.333 77.0683 283.467 74.935 286.133 72.8016C295.6 65.2016 298.533 52.135 293.067 41.335C287.333 30.135 275.467 25.335 254.133 25.4683C244.933 25.4683 238.4 26.2683 233.333 27.8683Z" fill="white"/>
<path d="M322.667 82.0006V137.334H349.2C363.734 137.334 378.934 136.667 382.8 136.001C400.267 132.667 409.467 123.467 410.4 108.534C411.2 96.934 408.8 88.934 403.067 84.0006C400.667 81.734 397.734 80.0006 396.667 80.0006C393.734 80.0006 394.134 79.2006 399.867 73.4673C406.267 67.0673 408.534 59.6006 407.334 50.0006C406.4 42.534 403.867 37.734 398.267 33.334C391.067 27.6006 384.267 26.6673 352.4 26.6673H322.667V82.0006ZM381.334 47.334C390.134 51.8673 388.934 66.134 379.467 70.0006C376.267 71.334 369.734 72.0006 358.667 72.0006H342.667V58.6673V45.334H360C372.8 45.334 378.534 45.8673 381.334 47.334ZM381.067 90.134C381.6 90.934 383.067 91.8673 384.267 92.4006C385.467 92.8006 387.6 94.8006 388.8 96.6673C392.134 101.734 390 111.334 384.934 115.201C381.6 117.734 378.934 118.001 361.867 118.401L342.667 118.934V103.334V87.734L361.334 88.2673C372.667 88.534 380.534 89.2006 381.067 90.134Z" fill="white"/>
<path d="M421.067 30.9335C426.134 39.4668 449.067 80.9335 456.667 95.3335C460.8 103.333 464.934 110.8 465.6 111.6C467.334 113.733 464.8 117.067 460.534 118.667C457.867 119.733 451.6 118.8 446.4 116.667C444.267 115.867 444 116.667 444 125.067C444 135.733 444.934 136.933 453.467 138.133C466.534 139.867 477.467 132.533 484.534 117.067C506.534 69.4668 525.334 28.2668 525.334 27.4668C525.334 26.9335 520.667 26.6668 515.067 26.9335L504.8 27.3335L491.2 57.0668C483.734 73.3335 477.334 87.0668 476.934 87.4668C476.667 87.8668 468.667 74.2668 459.2 57.4668L442.134 26.6668H430.267H418.4L421.067 30.9335Z" fill="white"/>
<path d="M541.334 82.0006V137.334H551.334H561.334V113.334V89.334H570.534C577.467 89.334 579.867 89.8673 580.534 91.334C580.934 92.4006 589.467 103.201 599.601 115.334L618.001 137.334H630.401C637.067 137.334 642.667 137.067 642.667 136.534C642.667 136.134 634.401 126.001 624.401 114.001C605.067 91.0673 596.934 80.8006 596.267 78.6673C596.001 78.0006 604.534 66.534 615.201 53.334C625.867 40.134 634.667 28.8006 634.667 28.0006C634.667 27.2006 630.134 26.6673 623.467 26.6673H612.401L595.201 49.334L578.001 71.8673L569.734 72.0006H561.334V49.334V26.6673H551.334H541.334V82.0006Z" fill="white"/>
</g>
<defs>
<clipPath id="clip0_2778_1118">
<rect width="642.667" height="161.333" fill="white"/>
</clipPath>
</defs>
</svg>
