<svg width="12" height="12" viewBox="0 0 12 12" fill="none" xmlns="http://www.w3.org/2000/svg">
<path fill-rule="evenodd" clip-rule="evenodd" d="M3.17579 4.3758C3.28831 4.26332 3.4409 4.20013 3.59999 4.20013C3.75909 4.20013 3.91168 4.26332 4.02419 4.3758L5.99999 6.3516L7.97579 4.3758C8.03114 4.31849 8.09735 4.27278 8.17055 4.24134C8.24375 4.20989 8.32249 4.19334 8.40215 4.19265C8.48182 4.19196 8.56083 4.20714 8.63457 4.23731C8.7083 4.26748 8.7753 4.31203 8.83163 4.36836C8.88797 4.4247 8.93252 4.49169 8.96269 4.56543C8.99286 4.63917 9.00804 4.71817 9.00734 4.79784C9.00665 4.87751 8.9901 4.95624 8.95866 5.02944C8.92721 5.10264 8.8815 5.16885 8.82419 5.2242L6.42419 7.6242C6.31168 7.73668 6.15909 7.79987 5.99999 7.79987C5.8409 7.79987 5.68831 7.73668 5.57579 7.6242L3.17579 5.2242C3.06331 5.11168 3.00012 4.9591 3.00012 4.8C3.00012 4.6409 3.06331 4.48832 3.17579 4.3758Z" fill="black"/>
</svg>
