<svg width="12" height="12" viewBox="0 0 12 12" fill="none" xmlns="http://www.w3.org/2000/svg">
<path d="M10.5 6C10.5 3.51562 8.48438 1.5 6 1.5C3.51562 1.5 1.5 3.51562 1.5 6C1.5 8.48438 3.51562 10.5 6 10.5C8.48438 10.5 10.5 8.48438 10.5 6Z" stroke="#F87171" stroke-width="0.75" stroke-miterlimit="10"/>
<path d="M8.21882 3.53735L5.47195 4.6361C5.28329 4.71155 5.11193 4.82453 4.96826 4.9682C4.82459 5.11187 4.71161 5.28323 4.63616 5.47188L3.53741 8.21876C3.52377 8.25283 3.52044 8.29016 3.52781 8.32611C3.53519 8.36207 3.55295 8.39507 3.5789 8.42102C3.60486 8.44697 3.63786 8.46474 3.67381 8.47211C3.70976 8.47949 3.74709 8.47615 3.78116 8.46251L6.52804 7.36376C6.71669 7.28832 6.88805 7.17533 7.03172 7.03166C7.17539 6.88799 7.28838 6.71663 7.36382 6.52798L8.46257 3.7811C8.47621 3.74703 8.47955 3.7097 8.47217 3.67375C8.4648 3.63779 8.44703 3.6048 8.42108 3.57884C8.39513 3.55289 8.36213 3.53513 8.32618 3.52775C8.29022 3.52038 8.2529 3.52371 8.21882 3.53735ZM5.99999 6.56243C5.88874 6.56243 5.77999 6.52944 5.68748 6.46763C5.59498 6.40582 5.52288 6.31797 5.48031 6.21519C5.43774 6.11241 5.4266 5.99931 5.4483 5.89019C5.47 5.78108 5.52358 5.68085 5.60224 5.60218C5.68091 5.52352 5.78114 5.46994 5.89025 5.44824C5.99937 5.42654 6.11247 5.43767 6.21525 5.48025C6.31803 5.52282 6.40589 5.59492 6.46769 5.68742C6.5295 5.77993 6.56249 5.88868 6.56249 5.99993C6.56249 6.14912 6.50323 6.29219 6.39774 6.39768C6.29225 6.50317 6.14918 6.56243 5.99999 6.56243Z" fill="#F87171"/>
</svg>
