<svg width="12" height="12" viewBox="0 0 12 12" fill="none" xmlns="http://www.w3.org/2000/svg">
<g clip-path="url(#clip0_374_15)">
<path d="M2.125 2.805C3.135 4.1 5 6.5 5 6.5V9.5C5 9.775 5.225 10 5.5 10H6.5C6.775 10 7 9.775 7 9.5V6.5C7 6.5 8.86 4.1 9.87 2.805C9.9273 2.73119 9.96273 2.64276 9.97224 2.5498C9.98176 2.45684 9.96497 2.36308 9.92381 2.27919C9.88265 2.19529 9.81875 2.12465 9.73941 2.07529C9.66006 2.02593 9.56844 1.99984 9.475 2H2.52C2.105 2 1.87 2.475 2.125 2.805Z" fill="black"/>
</g>
<defs>
<clipPath id="clip0_374_15">
<rect width="12" height="12" fill="white"/>
</clipPath>
</defs>
</svg>
