<svg width="12" height="12" viewBox="0 0 12 12" fill="none" xmlns="http://www.w3.org/2000/svg">
<g clip-path="url(#clip0_375_33)">
<path d="M6.04688 0.512939C6.03516 0.512939 6.01875 0.512939 6.00469 0.515752C5.89688 0.535674 5.76797 0.635283 5.68359 0.862861C5.59453 1.09021 5.57578 1.41435 5.65312 1.76146C5.73281 2.10435 5.89687 2.39989 6.07969 2.58036C6.25781 2.76083 6.41953 2.81005 6.52734 2.7913C6.63984 2.77489 6.76406 2.67177 6.84844 2.44677C6.9375 2.22083 6.96094 1.89224 6.88125 1.54794C6.79922 1.20106 6.6375 0.90833 6.45469 0.729033C6.3 0.569658 6.15703 0.512939 6.04688 0.512939ZM8.75156 3.54833C8.49375 3.55536 8.16797 3.62333 7.85156 3.75692C7.48594 3.9163 7.20469 4.12958 7.05 4.33114C6.89531 4.52567 6.88125 4.67333 6.93047 4.76005C6.98203 4.84677 7.125 4.9288 7.39922 4.94052C7.67344 4.95692 8.04375 4.88895 8.40703 4.73427C8.77031 4.57724 9.05625 4.36161 9.21094 4.16474C9.36562 3.9702 9.37734 3.81786 9.32812 3.73114C9.27891 3.64208 9.13359 3.56474 8.85938 3.55536C8.82187 3.54833 8.78906 3.54833 8.75156 3.54833ZM5.55703 5.72567C5.40234 5.72802 5.26172 5.74677 5.13516 5.77958C4.85859 5.84989 4.69922 5.97645 4.64766 6.1288C4.58906 6.28114 4.64766 6.46395 4.83047 6.66083C5.02266 6.85302 5.33906 7.03817 5.73281 7.1413C6.12422 7.24442 6.50156 7.24208 6.78281 7.16708C7.06641 7.09442 7.22578 6.96552 7.27734 6.81552C7.33125 6.66317 7.27734 6.4827 7.0875 6.28349C6.90234 6.0913 6.58594 5.90614 6.19219 5.80536C5.96953 5.74677 5.75156 5.72333 5.55703 5.72567ZM9.32344 7.08739L7.875 7.77411C7.97344 7.7788 8.21953 7.78583 8.21953 7.78583L8.37422 7.98974L9.65625 7.32177L9.32344 7.08739ZM8.04609 7.08974L6.70078 7.72724C6.82969 7.73427 7.13438 7.73895 7.25625 7.74599L8.42344 7.19286L8.04609 7.08974ZM10.2164 7.34286L8.56406 8.21942L8.90391 8.6577L10.65 7.61239L10.2164 7.34286ZM3.68203 7.55614C3.61106 7.55601 3.5403 7.56387 3.47109 7.57958C1.79531 7.9663 0.80625 7.99911 0.513281 7.99911H0.421875V10.5186C0.421875 10.5186 0.69375 10.4788 1.14609 10.4765C2.02031 10.4765 3.56016 10.6265 5.06016 11.503C5.13984 11.5522 5.31094 11.571 5.52422 11.571C6.09375 11.571 6.95859 11.435 7.15781 11.36C9.16406 10.6077 11.5781 8.54286 11.5781 8.54286L10.8164 7.87724C10.8164 7.87724 8.94609 9.0702 8.70938 9.18505C6.57422 10.2327 4.84453 9.5788 4.84453 9.5788C4.84453 9.5788 7.65469 9.64911 8.55703 8.93895L8.02734 8.14208C8.02734 8.14208 6.08672 8.08817 5.39531 7.99677C5.03437 7.94989 4.25391 7.55614 3.68203 7.55614Z" fill="black"/>
</g>
<defs>
<clipPath id="clip0_375_33">
<rect width="12" height="12" fill="white"/>
</clipPath>
</defs>
</svg>
