<svg width="12" height="12" viewBox="0 0 12 12" fill="none" xmlns="http://www.w3.org/2000/svg">
<path d="M5.8125 1.5C3.43102 1.5 1.5 3.43102 1.5 5.8125C1.5 8.19398 3.43102 10.125 5.8125 10.125C8.19398 10.125 10.125 8.19398 10.125 5.8125C10.125 3.43102 8.19398 1.5 5.8125 1.5Z" stroke="black" stroke-width="0.75" stroke-miterlimit="10"/>
<path d="M5.15625 5.15625H5.90625V7.875" stroke="black" stroke-width="0.75" stroke-linecap="round" stroke-linejoin="round"/>
<path d="M4.875 7.96875H6.9375" stroke="black" stroke-width="0.75" stroke-miterlimit="10" stroke-linecap="round"/>
<path d="M5.8125 3.04688C5.69198 3.04688 5.57416 3.08261 5.47395 3.14957C5.37374 3.21653 5.29563 3.3117 5.24951 3.42305C5.20339 3.5344 5.19132 3.65693 5.21483 3.77513C5.23835 3.89334 5.29638 4.00192 5.38161 4.08714C5.46683 4.17237 5.57541 4.2304 5.69362 4.25392C5.81182 4.27743 5.93435 4.26536 6.0457 4.21924C6.15705 4.17312 6.25222 4.09501 6.31918 3.9948C6.38614 3.89459 6.42188 3.77677 6.42188 3.65625C6.42188 3.49463 6.35767 3.33964 6.24339 3.22536C6.12911 3.11108 5.97412 3.04688 5.8125 3.04688Z" fill="black"/>
</svg>
