<svg width="12" height="12" viewBox="0 0 12 12" fill="none" xmlns="http://www.w3.org/2000/svg">
<path fill-rule="evenodd" clip-rule="evenodd" d="M5.7828 0.655803C5.84932 0.619141 5.92404 0.599915 6 0.599915C6.07595 0.599915 6.15067 0.619141 6.2172 0.655803L7.4172 1.3182C7.47071 1.34574 7.51816 1.38373 7.55673 1.42992C7.5953 1.47612 7.62422 1.52958 7.64176 1.58715C7.65931 1.64472 7.66513 1.70522 7.65888 1.76508C7.65263 1.82493 7.63443 1.88293 7.60537 1.93563C7.57631 1.98833 7.53698 2.03467 7.48969 2.0719C7.44241 2.10913 7.38814 2.1365 7.33009 2.15238C7.27204 2.16827 7.2114 2.17235 7.15174 2.16438C7.09209 2.15642 7.03464 2.13656 6.9828 2.106L6 1.5642L5.0172 2.106C4.96535 2.13656 4.9079 2.15642 4.84825 2.16438C4.7886 2.17235 4.72795 2.16827 4.6699 2.15238C4.61186 2.1365 4.55758 2.10913 4.5103 2.0719C4.46302 2.03467 4.42368 1.98833 4.39462 1.93563C4.36556 1.88293 4.34737 1.82493 4.34112 1.76508C4.33487 1.70522 4.34069 1.64472 4.35823 1.58715C4.37578 1.52958 4.40469 1.47612 4.44326 1.42992C4.48184 1.38373 4.52928 1.34574 4.5828 1.3182L5.7828 0.655803ZM3.2418 2.5722C3.27033 2.62397 3.28839 2.68085 3.29493 2.73959C3.30148 2.79833 3.29639 2.85779 3.27995 2.91457C3.26352 2.97135 3.23605 3.02433 3.19914 3.07049C3.16222 3.11665 3.11657 3.15509 3.0648 3.1836L2.5818 3.45L3.0648 3.7164C3.16935 3.77401 3.24673 3.87079 3.27992 3.98544C3.31312 4.1001 3.2994 4.22325 3.2418 4.3278C3.18419 4.43235 3.08741 4.50973 2.97275 4.54293C2.8581 4.57612 2.73495 4.56241 2.6304 4.5048L2.1 4.212V4.65C2.1 4.76935 2.05259 4.88381 1.9682 4.9682C1.8838 5.05259 1.76934 5.1 1.65 5.1C1.53065 5.1 1.41619 5.05259 1.3318 4.9682C1.24741 4.88381 1.2 4.76935 1.2 4.65V3.45C1.19998 3.36948 1.22157 3.29042 1.26252 3.22109C1.30347 3.15175 1.36227 3.09467 1.4328 3.0558L2.6304 2.3958C2.73487 2.33813 2.85797 2.32431 2.97263 2.35739C3.08728 2.39047 3.1841 2.46774 3.2418 2.5722ZM8.7582 2.5722C8.78671 2.52035 8.82517 2.47463 8.87138 2.43766C8.91759 2.40069 8.97064 2.3732 9.02748 2.35676C9.08433 2.34032 9.14386 2.33525 9.20267 2.34185C9.26148 2.34844 9.31841 2.36658 9.3702 2.3952L10.5672 3.0558C10.6377 3.09467 10.6965 3.15175 10.7375 3.22109C10.7784 3.29042 10.8 3.36948 10.8 3.45V4.65C10.8 4.76935 10.7526 4.88381 10.6682 4.9682C10.5838 5.05259 10.4693 5.1 10.35 5.1C10.2306 5.1 10.1162 5.05259 10.0318 4.9682C9.94741 4.88381 9.9 4.76935 9.9 4.65V4.212L9.3696 4.5048C9.31783 4.53333 9.26095 4.55137 9.20221 4.55792C9.14347 4.56446 9.08401 4.55936 9.02724 4.54293C8.91258 4.50973 8.8158 4.43235 8.7582 4.3278C8.72967 4.27604 8.71163 4.21916 8.70509 4.16042C8.69854 4.10167 8.70364 4.04222 8.72007 3.98544C8.75327 3.87079 8.83065 3.77401 8.9352 3.7164L9.4188 3.45L8.9352 3.1836C8.88334 3.15509 8.83762 3.11662 8.80066 3.07042C8.76369 3.02421 8.7362 2.97116 8.71975 2.91432C8.70331 2.85747 8.69825 2.79794 8.70484 2.73913C8.71144 2.68032 8.72957 2.62339 8.7582 2.5716V2.5722ZM4.4058 4.9704C4.43436 4.9186 4.47286 4.87294 4.51909 4.83603C4.56532 4.79912 4.61838 4.77169 4.67522 4.75531C4.73206 4.73892 4.79158 4.73391 4.85036 4.74055C4.90914 4.74719 4.96604 4.76535 5.0178 4.794L6 5.3358L6.9828 4.794C7.03464 4.76344 7.09209 4.74359 7.15174 4.73562C7.2114 4.72766 7.27204 4.73174 7.33009 4.74762C7.38814 4.76351 7.44241 4.79088 7.48969 4.82811C7.53698 4.86534 7.57631 4.91167 7.60537 4.96437C7.63443 5.01708 7.65263 5.07507 7.65888 5.13493C7.66513 5.19478 7.65931 5.25529 7.64176 5.31285C7.62422 5.37042 7.5953 5.42389 7.55673 5.47008C7.51816 5.51628 7.47071 5.55427 7.4172 5.5818L6.45 6.1158V7.05C6.45 7.16935 6.40259 7.28381 6.31819 7.3682C6.2338 7.45259 6.11934 7.5 6 7.5C5.88065 7.5 5.76619 7.45259 5.6818 7.3682C5.59741 7.28381 5.55 7.16935 5.55 7.05V6.1158L4.5828 5.5818C4.53102 5.55329 4.48537 5.51485 4.44846 5.46869C4.41154 5.42253 4.38408 5.36955 4.36764 5.31277C4.3512 5.25599 4.34611 5.19653 4.35266 5.13779C4.35921 5.07905 4.37726 5.02217 4.4058 4.9704ZM1.65 6.9C1.76934 6.9 1.8838 6.94741 1.9682 7.03181C2.05259 7.1162 2.1 7.23066 2.1 7.35V8.2842L3.0648 8.8164C3.16935 8.87401 3.24673 8.97079 3.27992 9.08545C3.31312 9.2001 3.2994 9.32325 3.2418 9.4278C3.18419 9.53235 3.08741 9.60973 2.97275 9.64293C2.8581 9.67612 2.73495 9.66241 2.6304 9.6048L1.4328 8.9442C1.36227 8.90534 1.30347 8.84826 1.26252 8.77892C1.22157 8.70958 1.19998 8.63053 1.2 8.55V7.35C1.2 7.23066 1.24741 7.1162 1.3318 7.03181C1.41619 6.94741 1.53065 6.9 1.65 6.9ZM10.35 6.9C10.4693 6.9 10.5838 6.94741 10.6682 7.03181C10.7526 7.1162 10.8 7.23066 10.8 7.35V8.55C10.8 8.63053 10.7784 8.70958 10.7375 8.77892C10.6965 8.84826 10.6377 8.90534 10.5672 8.9442L9.3696 9.6042C9.31775 9.63476 9.2603 9.65462 9.20065 9.66258C9.141 9.67055 9.08035 9.66647 9.0223 9.65058C8.96426 9.6347 8.90998 9.60733 8.8627 9.5701C8.81542 9.53287 8.77608 9.48653 8.74702 9.43383C8.71796 9.38113 8.69977 9.32314 8.69352 9.26328C8.68727 9.20342 8.69309 9.14292 8.71063 9.08535C8.72818 9.02778 8.75709 8.97432 8.79566 8.92812C8.83424 8.88193 8.88168 8.84394 8.9352 8.8164L9.9 8.2842V7.35C9.9 7.23066 9.94741 7.1162 10.0318 7.03181C10.1162 6.94741 10.2306 6.9 10.35 6.9ZM6 9.3C6.11934 9.3 6.2338 9.34741 6.31819 9.43181C6.40259 9.5162 6.45 9.63066 6.45 9.75V10.188L6.9828 9.894C7.08693 9.84042 7.20785 9.82955 7.31987 9.86369C7.4319 9.89783 7.5262 9.9743 7.58274 10.0769C7.63929 10.1794 7.65363 10.3 7.62272 10.4129C7.59181 10.5259 7.51808 10.6223 7.4172 10.6818L6.2172 11.3442C6.15067 11.3809 6.07595 11.4001 6 11.4001C5.92404 11.4001 5.84932 11.3809 5.7828 11.3442L4.5828 10.6818C4.52928 10.6543 4.48184 10.6163 4.44326 10.5701C4.40469 10.5239 4.37578 10.4704 4.35823 10.4129C4.34069 10.3553 4.33487 10.2948 4.34112 10.2349C4.34737 10.1751 4.36556 10.1171 4.39462 10.0644C4.42368 10.0117 4.46302 9.96534 4.5103 9.92811C4.55758 9.89087 4.61186 9.86351 4.6699 9.84762C4.72795 9.83174 4.7886 9.82766 4.84825 9.83562C4.9079 9.84359 4.96535 9.86344 5.0172 9.894L5.55 10.188V9.75C5.55 9.63066 5.59741 9.5162 5.6818 9.43181C5.76619 9.34741 5.88065 9.3 6 9.3Z" fill="black"/>
</svg>
