<svg width="12" height="12" viewBox="0 0 12 12" fill="none" xmlns="http://www.w3.org/2000/svg">
<path d="M11.982 7.63304L7.63849 11.9675C7.62149 11.985 7.59549 11.9935 7.57799 11.985L1.64499 10.395C1.61899 10.3865 1.60149 10.369 1.60149 10.352L0.00349465 4.42804C-0.00550535 4.40154 0.00349465 4.38454 0.0209946 4.36704L4.36399 0.0325438C4.38149 0.0150438 4.40749 0.00654379 4.42449 0.0150438L10.3575 1.60504C10.3835 1.61354 10.401 1.63104 10.401 1.64804L11.991 7.57204C12.008 7.59854 11.999 7.61554 11.982 7.63304ZM6.16199 2.91654L0.333495 4.47154C0.324995 4.47154 0.315995 4.48854 0.324995 4.49754L4.58999 8.75354C4.59849 8.76204 4.61599 8.76204 4.61599 8.74504L6.17949 2.92504C6.18799 2.92504 6.17049 2.90754 6.16199 2.91654Z" fill="#EC4899"/>
</svg>
