<svg width="12" height="12" viewBox="0 0 12 12" fill="none" xmlns="http://www.w3.org/2000/svg">
<path d="M10.7037 9.87633L8.49844 7.67109C9.02936 6.9643 9.31597 6.10399 9.315 5.22C9.315 2.96203 7.47797 1.125 5.22 1.125C2.96203 1.125 1.125 2.96203 1.125 5.22C1.125 7.47797 2.96203 9.315 5.22 9.315C6.10399 9.31597 6.9643 9.02936 7.67109 8.49844L9.87633 10.7037C9.98796 10.8035 10.1336 10.8567 10.2832 10.8525C10.4329 10.8483 10.5753 10.787 10.6811 10.6811C10.787 10.5753 10.8483 10.4329 10.8525 10.2832C10.8567 10.1336 10.8035 9.98796 10.7037 9.87633ZM2.295 5.22C2.295 4.64149 2.46655 4.07597 2.78795 3.59496C3.10935 3.11394 3.56618 2.73904 4.10065 2.51765C4.63513 2.29627 5.22325 2.23834 5.79064 2.3512C6.35803 2.46407 6.87922 2.74264 7.28829 3.15171C7.69736 3.56078 7.97594 4.08197 8.0888 4.64936C8.20166 5.21676 8.14373 5.80488 7.92235 6.33935C7.70096 6.87382 7.32606 7.33065 6.84504 7.65205C6.36403 7.97345 5.79851 8.145 5.22 8.145C4.44453 8.14407 3.70108 7.8356 3.15274 7.28726C2.6044 6.73892 2.29593 5.99547 2.295 5.22Z" fill="black"/>
</svg>
