<svg width="12" height="12" viewBox="0 0 12 12" fill="none" xmlns="http://www.w3.org/2000/svg">
<path d="M11.1701 5.32148L11.1663 5.31984L1.15664 1.16812C1.07245 1.13288 0.980834 1.11906 0.889994 1.1279C0.799153 1.13673 0.711918 1.16795 0.636094 1.21875C0.555983 1.27124 0.49018 1.34283 0.444604 1.42706C0.399027 1.5113 0.375109 1.60555 0.375 1.70133V4.35656C0.375045 4.48749 0.420764 4.61431 0.504278 4.71515C0.587792 4.81599 0.703868 4.88454 0.8325 4.90898L6.2918 5.91844C6.31325 5.9225 6.33261 5.93393 6.34654 5.95075C6.36046 5.96756 6.36809 5.98871 6.36809 6.01055C6.36809 6.03238 6.36046 6.05353 6.34654 6.07034C6.33261 6.08716 6.31325 6.09859 6.2918 6.10265L0.832735 7.11211C0.704138 7.13649 0.588069 7.20494 0.504517 7.30569C0.420966 7.40644 0.375164 7.53317 0.375 7.66406V10.3198C0.374938 10.4112 0.397583 10.5013 0.440903 10.5818C0.484224 10.6624 0.546864 10.7309 0.623203 10.7812C0.715031 10.8423 0.822798 10.8749 0.933047 10.875C1.00969 10.8749 1.08555 10.8596 1.15617 10.8298L11.1656 6.70172L11.1701 6.69961C11.3048 6.6417 11.4196 6.54557 11.5003 6.4231C11.581 6.30063 11.6239 6.1572 11.6239 6.01055C11.6239 5.86389 11.581 5.72046 11.5003 5.59799C11.4196 5.47552 11.3048 5.37939 11.1701 5.32148Z" fill="black"/>
</svg>
