<svg width="12" height="12" viewBox="0 0 12 12" fill="none" xmlns="http://www.w3.org/2000/svg">
<path d="M9 7.875C8.79798 7.87493 8.59804 7.9158 8.41225 7.99516C8.22646 8.07452 8.05869 8.19071 7.91907 8.33672L4.45032 6.38508C4.51751 6.13276 4.51751 5.86725 4.45032 5.61493L7.91907 3.66328C8.17166 3.92516 8.51106 4.08596 8.8737 4.11555C9.23634 4.14515 9.59732 4.04151 9.88903 3.82405C10.1807 3.60659 10.3832 3.29024 10.4584 2.93425C10.5336 2.57827 10.4764 2.20707 10.2975 1.89022C10.1187 1.57336 9.83048 1.33258 9.48685 1.21298C9.14323 1.09338 8.76779 1.10317 8.43087 1.24051C8.09394 1.37786 7.81865 1.63334 7.65657 1.95908C7.49449 2.28483 7.45674 2.6585 7.5504 3.01008L4.08165 4.96172C3.87445 4.74568 3.60735 4.59658 3.31471 4.53359C3.02207 4.4706 2.71728 4.49661 2.43954 4.60827C2.16181 4.71992 1.92383 4.91213 1.75623 5.16015C1.58863 5.40817 1.49907 5.70066 1.49907 6C1.49907 6.29934 1.58863 6.59184 1.75623 6.83986C1.92383 7.08788 2.16181 7.28008 2.43954 7.39174C2.71728 7.5034 3.02207 7.52941 3.31471 7.46642C3.60735 7.40343 3.87445 7.25432 4.08165 7.03828L7.5504 8.98993C7.46997 9.29271 7.48637 9.61307 7.59728 9.90606C7.70819 10.1991 7.90806 10.45 8.16883 10.6236C8.4296 10.7972 8.73819 10.8848 9.05129 10.8741C9.36438 10.8634 9.66628 10.755 9.91461 10.564C10.1629 10.373 10.3452 10.1091 10.4359 9.80919C10.5266 9.50932 10.5211 9.18858 10.4202 8.89199C10.3193 8.59539 10.1281 8.33783 9.87343 8.15543C9.61871 7.97304 9.31329 7.87498 9 7.875Z" fill="black"/>
</svg>
