<svg width="12" height="12" viewBox="0 0 12 12" fill="none" xmlns="http://www.w3.org/2000/svg">
<path d="M5.4375 1.6875H1.875C1.77187 1.6875 1.6875 1.77187 1.6875 1.875V5.4375C1.6875 5.54063 1.77187 5.625 1.875 5.625H5.4375C5.54063 5.625 5.625 5.54063 5.625 5.4375V1.875C5.625 1.77187 5.54063 1.6875 5.4375 1.6875ZM4.82812 4.82812H2.48438V2.48438H4.82812V4.82812ZM10.125 1.6875H6.5625C6.45937 1.6875 6.375 1.77187 6.375 1.875V5.4375C6.375 5.54063 6.45937 5.625 6.5625 5.625H10.125C10.2281 5.625 10.3125 5.54063 10.3125 5.4375V1.875C10.3125 1.77187 10.2281 1.6875 10.125 1.6875ZM9.51562 4.82812H7.17188V2.48438H9.51562V4.82812ZM10.125 6.375H6.5625C6.45937 6.375 6.375 6.45937 6.375 6.5625V10.125C6.375 10.2281 6.45937 10.3125 6.5625 10.3125H10.125C10.2281 10.3125 10.3125 10.2281 10.3125 10.125V6.5625C10.3125 6.45937 10.2281 6.375 10.125 6.375ZM9.51562 9.51562H7.17188V7.17188H9.51562V9.51562ZM4.96875 8.34375H3.46875V6.84375C3.46875 6.79219 3.42656 6.75 3.375 6.75H2.8125C2.76094 6.75 2.71875 6.79219 2.71875 6.84375V8.34375H1.21875C1.16719 8.34375 1.125 8.38594 1.125 8.4375V9C1.125 9.05156 1.16719 9.09375 1.21875 9.09375H2.71875V10.5938C2.71875 10.6453 2.76094 10.6875 2.8125 10.6875H3.375C3.42656 10.6875 3.46875 10.6453 3.46875 10.5938V9.09375H4.96875C5.02031 9.09375 5.0625 9.05156 5.0625 9V8.4375C5.0625 8.38594 5.02031 8.34375 4.96875 8.34375Z" fill="black"/>
</svg>
