<svg width="12" height="12" viewBox="0 0 12 12" fill="none" xmlns="http://www.w3.org/2000/svg">
<path d="M6 1.125C3.30703 1.125 1.125 3.30703 1.125 6C1.125 8.69297 3.30703 10.875 6 10.875C8.69297 10.875 10.875 8.69297 10.875 6C10.875 3.30703 8.69297 1.125 6 1.125ZM8.49609 4.65234L5.3625 7.8H5.36016C5.32031 7.83984 5.2125 7.92891 5.08828 7.92891C4.99922 7.92891 4.89844 7.87969 4.81406 7.79531L3.50156 6.48281C3.46406 6.44531 3.46406 6.38672 3.50156 6.34922L3.91875 5.93203C3.9375 5.91328 3.96094 5.90391 3.98438 5.90391C4.00781 5.90391 4.03125 5.91328 4.05 5.93203L5.09062 6.97266L7.95 4.09219C7.96875 4.07344 7.99219 4.06406 8.01562 4.06406C8.04141 4.06406 8.06484 4.07344 8.08125 4.09219L8.49141 4.51641C8.53359 4.55625 8.53359 4.61484 8.49609 4.65234Z" fill="rgb(74 222 128)"/>
</svg>
