<svg width="12" height="12" viewBox="0 0 12 12" fill="none" xmlns="http://www.w3.org/2000/svg">
<g clip-path="url(#clip0_374_8)">
<path d="M8.5793 3.42184C8.38432 3.2268 8.27016 2.96534 8.25964 2.68976C8.24912 2.41417 8.34303 2.14477 8.52258 1.93544C8.53743 1.91803 8.54515 1.89565 8.54419 1.87279C8.54324 1.84992 8.53367 1.82827 8.51742 1.81216L7.48313 0.776689C7.46603 0.7596 7.44285 0.75 7.41867 0.75C7.3945 0.75 7.37132 0.7596 7.35422 0.776689L5.70563 2.42528C5.6448 2.48609 5.59898 2.56024 5.5718 2.64184C5.54472 2.72364 5.49895 2.79799 5.43813 2.85902C5.37731 2.92004 5.30311 2.96606 5.22141 2.99341C5.13975 3.02062 5.06553 3.06643 5.00461 3.12724L0.776719 7.35419C0.75963 7.37129 0.750031 7.39447 0.750031 7.41864C0.750031 7.44281 0.75963 7.466 0.776719 7.48309L1.81102 8.51739C1.82712 8.53364 1.84878 8.54321 1.87164 8.54416C1.89451 8.54512 1.91689 8.5374 1.9343 8.52255C2.14359 8.34281 2.41304 8.24875 2.68873 8.2592C2.96441 8.26966 3.22597 8.38385 3.42104 8.57893C3.61612 8.774 3.73032 9.03556 3.74077 9.31124C3.75122 9.58693 3.65716 9.85638 3.47742 10.0657C3.46257 10.0831 3.45485 10.1055 3.45581 10.1283C3.45676 10.1512 3.46633 10.1728 3.48258 10.189L4.51688 11.2233C4.53397 11.2403 4.55716 11.2499 4.58133 11.2499C4.6055 11.2499 4.62868 11.2403 4.64578 11.2233L8.87391 6.99536C8.93471 6.93444 8.98052 6.86022 9.00773 6.77856C9.03481 6.69677 9.08058 6.62241 9.1414 6.56139C9.20222 6.50037 9.27642 6.45435 9.35813 6.427C9.43973 6.39982 9.51388 6.354 9.57469 6.29317L11.2233 4.64458C11.2404 4.62748 11.25 4.6043 11.25 4.58013C11.25 4.55595 11.2404 4.53277 11.2233 4.51567L10.189 3.48138C10.1729 3.46512 10.1512 3.45556 10.1284 3.45461C10.1055 3.45365 10.0831 3.46137 10.0657 3.47622C9.85666 3.65607 9.58743 3.75039 9.31185 3.74031C9.03626 3.73023 8.77464 3.61649 8.5793 3.42184Z" stroke="black" stroke-width="0.75" stroke-miterlimit="10"/>
<path d="M5.8711 3.29149L5.48415 2.90454M6.90282 4.32321L6.64477 4.0654M7.93454 5.35517L7.67672 5.09712M9.0954 6.51579L8.70844 6.12884" stroke="black" stroke-width="0.75" stroke-miterlimit="10" stroke-linecap="round"/>
</g>
<defs>
<clipPath id="clip0_374_8">
<rect width="12" height="12" fill="white"/>
</clipPath>
</defs>
</svg>
