<svg width="12" height="12" viewBox="0 0 12 12" fill="none" xmlns="http://www.w3.org/2000/svg">
<path d="M6 1.125C3.31195 1.125 1.125 3.31195 1.125 6C1.125 8.68805 3.31195 10.875 6 10.875C8.68805 10.875 10.875 8.68805 10.875 6C10.875 3.31195 8.68805 1.125 6 1.125ZM4.82297 3.86297C5.11992 3.5482 5.53781 3.375 6 3.375C6.46219 3.375 6.87633 3.54938 7.17445 3.86578C7.47656 4.18641 7.62352 4.61719 7.58883 5.08031C7.51945 6 6.80695 6.75 6 6.75C5.19305 6.75 4.47914 6 4.41117 5.08008C4.37672 4.6132 4.52344 4.18102 4.82297 3.86297ZM6 10.125C5.44933 10.1254 4.90419 10.0151 4.39691 9.80088C3.88963 9.58662 3.43055 9.27267 3.04688 8.87766C3.26662 8.56429 3.5466 8.29785 3.87047 8.09391C4.46789 7.71094 5.22398 7.5 6 7.5C6.77602 7.5 7.53211 7.71094 8.12883 8.09391C8.45297 8.29776 8.7332 8.5642 8.95312 8.87766C8.56949 9.27271 8.1104 9.58669 7.60312 9.80096C7.09583 10.0152 6.55068 10.1254 6 10.125Z" fill="black"/>
</svg>
