<svg viewBox="0 0 12 10" fill="none" xmlns="http://www.w3.org/2000/svg">
<path d="M6.6944 -0.00439453C5.76623 -0.00439453 4.98346 0.663879 4.98346 1.51904C4.98346 1.951 5.18334 2.33514 5.50063 2.60966L5.69922 2.21896C5.51463 2.02672 5.40531 1.78145 5.40531 1.51904C5.40531 0.924434 5.9657 0.41748 6.69438 0.41748C7.42305 0.41748 7.98344 0.924434 7.98344 1.51904C7.98344 1.92693 7.7197 2.29356 7.31884 2.48359L7.14349 2.98881C7.18802 2.97798 7.23194 2.9657 7.27504 2.95178L7.48968 3.32708C7.24767 3.49731 7.01343 3.70832 6.76232 3.97096L8.66896 8.17546C9.84705 8.22978 10.9837 7.6051 11.5694 6.58147L9.04218 2.71811C8.56954 2.81249 8.18929 2.93031 7.8498 3.10712L7.66019 2.77562C8.10684 2.50339 8.40534 2.04695 8.40534 1.51907C8.40534 0.663902 7.62257 -0.00437102 6.6944 -0.00437102V-0.00439453ZM3.81942 0.134988C3.75707 0.135691 3.69159 0.146004 3.62835 0.166582C3.48374 0.213551 3.3614 0.310348 3.3082 0.414785L3.30145 0.428145L1.78026 2.59136C1.73022 2.6957 1.72443 2.84793 1.76955 2.98909C1.81572 3.13339 1.91123 3.25405 2.00866 3.30367L5.3762 5.01836C5.47164 5.06699 5.62441 5.07472 5.76639 5.02836C5.90573 4.98289 6.02411 4.89043 6.08053 4.78246L6.6749 3.04199C6.67607 3.04199 6.67724 3.04206 6.67842 3.04208L6.8267 2.61482C6.82469 2.615 6.8226 2.61505 6.82061 2.61524L6.93557 2.27856L6.94237 2.26525C6.99557 2.16081 7.0019 2.00462 6.95526 1.8602C6.90862 1.71578 6.81229 1.59407 6.71071 1.54234L5.95888 1.15954C5.80553 1.35121 5.75849 1.62519 5.95077 1.88305L6.00023 1.96583L6.24135 2.09239L6.04785 2.47241L6.04443 2.47077L5.85417 2.84507C5.85522 2.84561 5.85627 2.84607 5.85733 2.84659L5.7096 3.13665L3.32859 1.92428L3.76467 1.06792L3.86034 0.879949L4.58348 1.2482C4.61995 1.01828 4.69884 0.797074 4.8257 0.58248L4.03366 0.179238C3.97474 0.149238 3.89957 0.134121 3.81942 0.134988ZM8.9271 3.21421L9.49152 4.24124L7.80721 5.16679L7.34437 4.32468L7.24279 4.13982L8.9271 3.21423V3.21421ZM8.76056 3.78711L7.81574 4.30635L7.97376 4.59393L8.91857 4.07469L8.76056 3.78711ZM2.68359 4.12077L2.19445 5.08154L3.82354 5.91104L4.31275 4.95029L2.68359 4.12077ZM9.64954 4.52882L10.2139 5.55578L8.52963 6.48132L8.06685 5.63921L7.96527 5.45436L9.64959 4.52877L9.64954 4.52882ZM9.48299 5.10168L8.53813 5.62091L8.6962 5.90849L9.64103 5.38925L9.48302 5.10168H9.48299ZM2.33718 5.62761H2.33713L0.430588 9.37189L0.574096 9.81322L2.38497 6.25689L2.76086 6.44832L0.950033 10.0046L1.47445 9.83411L1.77838 9.73527L1.61465 9.23005L2.11846 9.06669L1.95449 8.5626L2.45887 8.39858L2.33301 8.01177L3.29793 6.1168L2.33718 5.62761Z" fill="none"/>
</svg>
