<svg viewBox="0 0 10 10" fill="none" xmlns="http://www.w3.org/2000/svg">
<path d="M5 0.0852285L4.7796 0.531807L4.28671 0.603432L4.64336 0.951057L4.55917 1.44196L5 1.21023L5.44086 1.44198L5.35665 0.95108L5.7133 0.603455L5.22041 0.531807L5 0.0852285ZM2.92733 0.702221L2.70693 1.14885L2.21404 1.22047L2.57071 1.5681L2.48652 2.05902L2.92733 1.82722L3.36819 2.05902L3.28398 1.5681L3.64063 1.22047L3.14774 1.14885L2.92733 0.702221ZM7.07268 0.702221L6.85225 1.14885L6.35938 1.22047L6.71603 1.5681L6.63184 2.05902L7.0727 1.82722L7.51349 2.05902L7.4293 1.5681L7.78595 1.22047L7.29306 1.14885L7.07268 0.702221ZM1.35702 2.28249L1.13661 2.72907L0.643723 2.8007L1.00039 3.14832L0.916207 3.63922L1.35702 3.40747L1.79788 3.63922L1.71367 3.14832L2.07032 2.80072L1.57743 2.72907L1.35702 2.28249ZM8.64299 2.28249L8.42256 2.72907L7.92967 2.8007L8.28632 3.14832L8.20213 3.63922L8.64299 3.40747L9.08378 3.63922L8.99959 3.14832L9.35624 2.8007L8.86335 2.72905L8.64297 2.28245L8.64299 2.28249ZM0.794519 4.3566L0.574113 4.80317L0.0812225 4.8748L0.437894 5.22242L0.353707 5.71332L0.794519 5.48157L1.23538 5.7133L1.15117 5.2224L1.50782 4.8748L1.01493 4.80317L0.794519 4.35657V4.3566ZM9.20549 4.3566L8.98506 4.80317L8.49219 4.8748L8.84884 5.22242L8.76465 5.71332L9.20551 5.48157L9.6463 5.7133L9.56211 5.2224L9.91876 4.87478L9.42587 4.80315L9.20549 4.35655V4.3566ZM1.35702 6.46356L1.13661 6.91016L0.643723 6.98181L1.00039 7.32939L0.916207 7.82031L1.35702 7.58851L1.79788 7.82031L1.71367 7.32941L2.07032 6.98183L1.57743 6.91016L1.35702 6.46356ZM8.64299 6.46356L8.42256 6.91016L7.92969 6.98183L8.28634 7.32941L8.20215 7.82033L8.64301 7.58853L9.0838 7.82033L8.99961 7.32943L9.35626 6.98185L8.86337 6.91018L8.64299 6.46356ZM2.92733 8.00448L2.70693 8.45108L2.21404 8.52273L2.57071 8.87035L2.48652 9.36125L2.92733 9.12946L3.36819 9.36125L3.28398 8.87035L3.64063 8.52273L3.14774 8.45108L2.92733 8.00448ZM7.07268 8.00448L6.85225 8.45108L6.35936 8.52273L6.716 8.87035L6.63182 9.36125L7.07268 9.12946L7.51346 9.36125L7.42928 8.87035L7.78593 8.52273L7.29304 8.45108L7.07268 8.00448ZM4.99588 8.55793L4.77547 9.00456L4.28258 9.07616L4.63923 9.42383L4.55509 9.91468L4.56411 9.90992L4.56329 9.91468L5 9.68506L5.43671 9.91468L5.43589 9.90992L5.44494 9.91468L5.3608 9.42383L5.7174 9.07616L5.22451 9.00456L5.0041 8.55793L4.99998 8.56625L4.99586 8.55793H4.99588Z" fill="none"/>
</svg>
