<svg  viewBox="0 0 12 12" fill="none" xmlns="http://www.w3.org/2000/svg">
<path d="M3.78797 4.125H4.70414C4.73906 3.49148 4.85742 2.92148 5.03719 2.47477C4.38773 2.78508 3.91172 3.39328 3.78797 4.125ZM3.78797 4.875C3.91195 5.60672 4.38773 6.21492 5.03719 6.52523C4.85719 6.07852 4.73906 5.50852 4.70414 4.875H3.78797ZM6 6.7193C6.18023 6.54469 6.4868 5.91258 6.54914 4.875H5.45062C5.5132 5.91234 5.81977 6.54469 6 6.7193ZM5.45086 4.125H6.54938C6.48703 3.08766 6.18047 2.45531 6.00023 2.2807C5.81977 2.45531 5.5132 3.08766 5.45086 4.125ZM6.96281 6.52523C7.61227 6.21492 8.08828 5.60672 8.21203 4.875H7.29586C7.26094 5.50852 7.14281 6.07852 6.96281 6.52523ZM10.5 0H2.25C1.42148 0 0.75 0.671484 0.75 1.5V10.5C0.75 11.3285 1.42148 12 2.25 12H10.5C10.9141 12 11.25 11.6641 11.25 11.25V0.75C11.25 0.335859 10.9141 0 10.5 0ZM8.625 9.75H3.375C3.16875 9.75 3 9.58125 3 9.375C3 9.16875 3.16875 9 3.375 9H8.625C8.83125 9 9 9.16875 9 9.375C9 9.58125 8.83125 9.75 8.625 9.75ZM6 7.5C4.3432 7.5 3 6.1568 3 4.5C3 2.8432 4.3432 1.5 6 1.5C7.6568 1.5 9 2.8432 9 4.5C9 6.1568 7.6568 7.5 6 7.5ZM6.96281 2.47477C7.14281 2.92148 7.26094 3.49148 7.29586 4.125H8.21203C8.08828 3.39328 7.61227 2.78508 6.96281 2.47477Z" fill="none"/>
</svg>
