<svg width="12" height="10" viewBox="0 0 12 10" fill="none" xmlns="http://www.w3.org/2000/svg">
<path d="M3.6 2.60005C3.6 2.26817 3.86813 2.00005 4.2 2.00005C4.53188 2.00005 4.8 2.26817 4.8 2.60005V2.7463C4.8 3.26567 4.755 3.78317 4.66688 4.29317L3.08438 4.76755C2.32313 4.9963 1.80188 5.69755 1.80188 6.49255V7.84067C1.80188 8.59067 2.41125 9.20005 3.16125 9.20005C3.64875 9.20005 4.09875 8.93942 4.34063 8.51567L4.60125 8.06005C5.10375 7.1788 5.47312 6.22817 5.69625 5.23817L7.46625 4.70755L7.23188 5.41067C7.17 5.59442 7.20188 5.79505 7.31438 5.95067C7.42688 6.1063 7.60875 6.20005 7.80188 6.20005H10.2C10.5319 6.20005 10.8 5.93192 10.8 5.60005C10.8 5.26817 10.5319 5.00005 10.2 5.00005H8.6325L8.97 3.98942C9.04125 3.77755 8.98688 3.54317 8.83125 3.38192C8.67563 3.22067 8.44313 3.16067 8.2275 3.22442L5.9325 3.91442C5.9775 3.5263 6 3.13817 6 2.7463V2.60005C6 1.6063 5.19375 0.800049 4.2 0.800049C3.20625 0.800049 2.4 1.6063 2.4 2.60005V3.20005C2.4 3.53192 2.66813 3.80005 3 3.80005C3.33188 3.80005 3.6 3.53192 3.6 3.20005V2.60005ZM3.4275 5.9188L4.34625 5.64317C4.15125 6.27692 3.88688 6.88817 3.55688 7.46567L3.29625 7.9213C3.26813 7.97005 3.21563 8.00192 3.1575 8.00192C3.06938 8.00192 2.99813 7.93067 2.99813 7.84255V6.49255C2.99813 6.22817 3.1725 5.9938 3.42563 5.91692L3.4275 5.9188ZM0.45 7.10005C0.200625 7.10005 0 7.30067 0 7.55005C0 7.79942 0.200625 8.00005 0.45 8.00005H1.20563C1.20188 7.94755 1.2 7.89505 1.2 7.84067V7.10005H0.45ZM11.55 8.00005C11.7994 8.00005 12 7.79942 12 7.55005C12 7.30067 11.7994 7.10005 11.55 7.10005H5.73563C5.61 7.40567 5.46938 7.70567 5.3175 8.00005H11.55Z" fill="black"/>
</svg>
