<svg width="12" height="12" viewBox="0 0 12 12" fill="none" xmlns="http://www.w3.org/2000/svg">
<g clip-path="url(#clip0_380_2)">
<path d="M1.84201 0.476105C1.36398 0.474159 0.903645 0.56587 0.487793 0.768323C2.95346 1.47759 4.99707 2.76096 6.77774 4.40189C6.54388 3.3299 5.83054 2.35275 4.91739 1.64142C4.65622 1.83712 4.26758 1.84075 3.95279 1.659C3.63868 1.47759 3.44818 1.14002 3.48625 0.816698C2.94273 0.600206 2.38129 0.478308 1.84196 0.476105H1.84201ZM4.22385 0.631378C4.10162 0.635269 4.00082 0.689386 3.95357 0.771253C3.87289 0.910987 3.94068 1.14567 4.17254 1.27957C4.40443 1.41346 4.64122 1.35485 4.72192 1.21511C4.80254 1.07538 4.73551 0.839972 4.50362 0.70605C4.41667 0.655894 4.32866 0.633206 4.24874 0.631378C4.24044 0.631144 4.232 0.631097 4.22389 0.631378H4.22385ZM3.21018 2.36355L0.744105 6.63724C0.884074 6.83538 1.05097 6.97216 1.33297 6.99025L3.80493 2.70635C3.61672 2.58189 3.41821 2.4678 3.21018 2.36355ZM7.77533 2.51003L7.36738 2.76269L7.12785 4.32496L8.02581 2.93925L7.77533 2.51003ZM4.48602 3.9566L3.97405 4.27223L4.31097 4.67803L6.33027 4.5667L4.48602 3.95662V3.9566ZM9.40204 3.97268L9.31344 3.99977L5.06903 5.31007L4.98114 5.33791L4.93871 5.41994L3.94698 7.36232L3.86202 7.52932L4.01366 7.63919L9.08858 11.3247L9.32591 11.4968L9.42332 11.22L11.499 5.32692L11.5613 5.15114L11.3972 5.06184L9.48341 4.01737L9.40208 3.9727L9.40204 3.97268ZM9.35446 4.44583L10.8376 5.25588L9.29141 5.73269L8.51216 4.70582L9.35443 4.44583H9.35446ZM8.0661 4.84352L8.8461 5.87039L6.53903 6.58228L6.60418 5.29467L8.06612 4.8435L8.0661 4.84352ZM6.15887 5.43236L6.09371 6.72002L4.51825 7.20635L5.28657 5.70189L6.15892 5.43236H6.15887ZM10.905 5.69313L9.37496 10.0386L9.47019 6.13624L10.905 5.69313H10.905ZM9.02856 6.2725L8.93331 10.1748L6.6174 7.01735L9.02854 6.2725H9.02856ZM6.17427 7.15359L8.54879 10.3916L4.71236 7.60549L6.17427 7.15361V7.15359Z" fill="black"/>
</g>
<defs>
<clipPath id="clip0_380_2">
<rect width="12" height="12" fill="white"/>
</clipPath>
</defs>
</svg>
