<!-- icon666.com - MILLIONS vector ICONS FREE -->
<svg viewBox="0 0 496 496" xmlns="http://www.w3.org/2000/svg" xmlns:xlink="http://www.w3.org/1999/xlink">
<linearGradient id="a" gradientUnits="userSpaceOnUse" x1="248" x2="248" y1="496" y2="0">
<stop offset="0" stop-color="#0680ba"></stop>
<stop offset="0.5" stop-color="#d34b7b"></stop>
<stop offset="1" stop-color="#dc4454"></stop>
</linearGradient>
<path d="m272 405.769531v-27.53125l-10.351562-3.453125c-1.375-4.953125-3.34375-9.707031-5.886719-14.183594l4.886719-9.777343-19.472657-19.472657-9.769531 4.886719c-4.484375-2.535156-9.230469-4.503906-14.183594-5.878906l-3.453125-10.359375h-27.539062l-3.445313 10.359375c-4.953125 1.375-9.695312 3.34375-14.183594 5.878906l-9.769531-4.886719-19.472656 19.472657 4.886719 9.777343c-2.535156 4.488282-4.503906 9.230469-5.886719 14.183594l-10.359375 3.445313v27.53125l10.351562 3.453125c1.375 4.953125 3.34375 9.695312 5.886719 14.183594l-4.886719 9.769531 19.472657 19.480469 9.769531-4.886719c4.484375 2.535156 9.230469 4.503906 14.183594 5.878906l3.453125 10.359375h27.539062l3.445313-10.359375c4.953125-1.375 9.695312-3.34375 14.183594-5.878906l9.769531 4.886719 19.472656-19.480469-4.886719-9.769531c2.535156-4.496094 4.503906-9.230469 5.886719-14.183594zm-16-11.539062-8.03125 2.671875-.914062 4.554687c-1.222657 6.128907-3.613282 11.878907-7.09375 17.109375l-2.578126 3.859375 3.792969 7.582031-3.160156 3.167969-7.574219-3.800781-3.867187 2.578125c-5.222657 3.488281-10.980469 5.863281-17.109375 7.09375l-4.554688.90625-2.679687 8.046875h-4.460938l-2.679687-8.039062-4.554688-.90625c-6.128906-1.222657-11.878906-3.605469-17.109375-7.09375l-3.867187-2.578126-7.574219 3.800782-3.160156-3.167969 3.792969-7.582031-2.578126-3.859375c-3.488281-5.222657-5.871093-10.980469-7.09375-17.109375l-.914062-4.554688-8.03125-2.679687v-4.46875l8.03125-2.671875.914062-4.554688c1.222657-6.136718 3.613282-11.886718 7.09375-17.109375l2.578126-3.859375-3.792969-7.589844 3.160156-3.160156 7.574219 3.800782 3.867187-2.578126c5.222657-3.488281 10.980469-5.863281 17.109375-7.09375l4.554688-.90625 2.679687-8.039062h4.460938l2.679687 8.039062 4.554688.90625c6.128906 1.222657 11.878906 3.605469 17.109375 7.09375l3.867187 2.578126 7.574219-3.800782 3.160156 3.160156-3.792969 7.589844 2.578126 3.859375c3.488281 5.214844 5.871093 10.972657 7.09375 17.109375l.914062 4.554688 8.03125 2.679687zm-56-34.230469c-17.648438 0-32 14.351562-32 32s14.351562 32 32 32 32-14.351562 32-32-14.351562-32-32-32zm0 48c-8.824219 0-16-7.175781-16-16s7.175781-16 16-16 16 7.175781 16 16-7.175781 16-16 16zm-168 32h96v16h-96zm72-16h-16v-16h16zm-32 0h-16v-16h16zm200 16h96v16h-96zm40-16h-16v-16h16zm32 0h-16v-16h16zm128-344h-192v-24c0-13.230469-10.769531-24-24-24-6.167969 0-11.742188 2.40625-16 6.238281-4.257812-3.832031-9.832031-6.238281-16-6.238281s-11.742188 2.40625-16 6.238281c-4.257812-3.832031-9.832031-6.238281-16-6.238281s-11.742188 2.40625-16 6.238281c-4.257812-3.832031-9.832031-6.238281-16-6.238281-13.230469 0-24 10.769531-24 24v1.472656c-2.511719-.898437-5.183594-1.472656-8-1.472656-13.230469 0-24 10.769531-24 24h-104v48h104v24c0 5.433594 1.863281 10.753906 5.265625 14.992188l24.972656 31.222656c1.136719 1.425781 1.761719 3.199218 1.761719 5.007812v36.777344h-16v48h-24v88h-96v120h400v-120h-96v-88h-24v-48h-16v-37.542969c0-1.585937.464844-3.121093 1.34375-4.441406l10.625-15.925781c2.640625-3.953125 4.03125-8.5625 4.03125-13.320313v-40.769531h10.847656l85.152344 187.335938 85.152344-187.335938h10.847656c13.230469 0 24-10.769531 24-24s-10.769531-24-24-24zm-216-32c4.40625 0 8 3.585938 8 8v48.007812c0 4.417969-3.59375 8-8 8s-8-3.582031-8-8v-48.007812c0-4.414062 3.59375-8 8-8zm-32 0c4.40625 0 8 3.585938 8 8v48.007812c0 4.417969-3.59375 8-8 8s-8-3.582031-8-8v-48.007812c0-4.414062 3.59375-8 8-8zm-32 0c4.40625 0 8 3.585938 8 8v48.007812c0 4.417969-3.59375 8-8 8s-8-3.582031-8-8v-48.007812c0-4.414062 3.59375-8 8-8zm-40 8c0-4.414062 3.59375-8 8-8s8 3.585938 8 8v48.007812c0 4.417969-3.59375 8-8 8s-8-3.582031-8-8zm-136 56v-16h88v16zm368 280v88h-368v-88h96v-88h176v88zm-248-104v-32h128v32zm126.65625-114.800781-10.625 15.9375c-2.640625 3.96875-4.03125 8.566406-4.03125 13.320312v37.542969h-96v-36.777344c0-5.421875-1.863281-10.742187-5.265625-15l-24.980469-31.230468c-1.128906-1.417969-1.753906-3.183594-1.753906-4.992188v-72c0-4.414062 3.59375-8 8-8s8 3.585938 8 8v66.808594l33.753906 42.191406 12.492188-10-30.246094-37.808594v-14.664062c2.511719.898437 5.183594 1.472656 8 1.472656 6.167969 0 11.742188-2.40625 16-6.238281 4.257812 3.839843 9.832031 6.238281 16 6.238281s11.742188-2.40625 16-6.238281c4.257812 3.839843 9.832031 6.238281 16 6.238281s11.742188-2.40625 16-6.238281c4.257812 3.839843 9.832031 6.238281 16 6.238281 2.816406 0 5.488281-.574219 8-1.472656v42.234375c0 1.589843-.464844 3.117187-1.34375 4.4375zm17.34375-69.191407v-8.007812h168v16h-168zm96 172.65625-67.574219-148.664062h135.148438zm96-164.664062h-8v-16h8c4.40625 0 8 3.585938 8 8s-3.59375 8-8 8zm-88-112v16h-16v-16zm-16 16v16h-16v-16zm0 16h16v16h-16zm16 0v-16h16v16zm96 184h-16v-16h16zm-16 0v16h-16v-16zm0 16h16v16h-16zm16-16h16v16h-16zm-416-24v16h-16v-16zm-16 16v16h-16v-16zm0 16h16v16h-16zm16 0v-16h16v16zm24-224v16h-16v-16zm-16 16v16h-16v-16zm0 16h16v16h-16zm16 0v-16h16v16zm0 0" fill="url(#a)"></path></svg>