<svg width="511" height="100" viewBox="0 0 511 100" fill="none" xmlns="http://www.w3.org/2000/svg">
<path d="M163.596 75L181.953 24.6428H172.881L158.167 66.1428H156.739L142.524 24.6428H133.31L151.096 75H163.596Z" fill="black"/>
<path d="M205.751 48.9285L227.108 24.6428H216.537L198.679 45.1428H196.608V24.6428H188.037V75H196.608V53.4285H198.751L217.608 75H228.894L205.751 48.9285Z" fill="black"/>
<path d="M257.638 75V36.0714H258.781L272.852 75H280.852L295.21 36.0714H296.352V75H304.71V24.6428H291.567L277.567 62.7142H276.424L262.71 24.6428H249.281V75H257.638Z" fill="black"/>
<path d="M331.623 64.6428H330.48L319.551 37.8571H310.765L327.265 77L326.837 78.1428C325.765 81.1428 324.48 82.1428 321.765 82.1428H314.837L315.551 89.6428H321.194C328.051 89.6428 331.765 86.5714 334.265 79.6428L349.48 37.8571H341.123L331.623 64.6428Z" fill="black"/>
<path d="M375.318 56.0714C379.104 55.0714 381.889 52 381.889 47.7857C381.889 41.5714 375.961 37.1428 367.746 37.1428C360.389 37.1428 354.175 40.5714 351.889 47.6428L359.461 48.9285C360.961 46 363.889 44.1428 367.461 44.1428C370.889 44.1428 373.675 45.8571 373.675 48.6428C373.675 51.1428 371.389 52.7857 366.961 52.7857H362.318V59.9285H366.961C372.532 59.9285 374.246 61.7857 374.246 64.1428C374.246 67 371.675 68.7143 366.961 68.7143C362.675 68.7143 360.175 67.2857 358.532 64L350.961 65.2857C352.746 71.5 358.818 75.7143 367.032 75.7143C376.461 75.7143 382.461 70.8571 382.461 64.7857C382.461 60.1428 379.104 57.2143 375.318 56.0714Z" fill="black"/>
<path d="M404.308 75C413.165 75 419.451 69.5 419.451 61.7143C419.451 53.9285 413.236 48.4285 404.308 48.4285H398.522V37.8571H390.308V75H404.308ZM432.094 75V37.8571H423.879V75H432.094ZM398.522 55.5714H404.308C408.379 55.5714 411.236 58.0714 411.236 61.7143C411.236 65.3571 408.379 67.8571 404.308 67.8571H398.522V55.5714Z" fill="black"/>
<path d="M475.225 75L458.154 55.7143L473.797 37.8571H464.011L451.582 52.2857H449.582V37.8571H441.368V75H449.582V60.2143H451.582L464.44 75H475.225Z" fill="black"/>
<path d="M493.62 37.1428C486.406 37.1428 480.049 40.8571 478.192 47.2857L485.763 48.5714C486.906 46.2857 489.477 44.1428 493.192 44.1428C497.692 44.1428 500.335 47.3571 500.692 52.2143H492.692C481.763 52.2143 476.335 57 476.335 63.8571C476.335 70.7857 481.692 75.7143 489.263 75.7143C495.335 75.7143 499.406 72.2143 501.192 69.1428L502.906 75H508.978V54.1428C508.978 43.3571 503.12 37.1428 493.62 37.1428ZM491.192 68.7857C487.192 68.7857 484.62 66.7142 484.62 63.5C484.62 60.6428 486.692 58.6428 492.978 58.6428H500.763C500.763 64.7143 496.906 68.7857 491.192 68.7857Z" fill="black"/>
<path fill-rule="evenodd" clip-rule="evenodd" d="M7.48248 7.02943C0.663345 13.8486 0.459342 24.6995 0.453244 45.9994C19.5412 45.9993 31.4588 37.8045 41.9125 30.6162C50.0792 25.0007 57.3524 19.9994 66.4531 19.9994C79.9985 19.9994 91.8256 29.5768 98.0969 34.6552C98.9812 35.3713 99.7551 35.998 100.408 36.4957C100.21 21.3094 99.1447 12.7505 93.4236 7.02943C86.3942 -1.2251e-06 75.0805 -2.21418e-06 52.453 -4.19233e-06L48.453 -4.54202e-06C25.8256 1.10922e-06 14.5119 1.20145e-07 7.48248 7.02943ZM45.5131 99.9994C46.4713 100 47.4511 100 48.4531 100L52.453 100L52.4531 100C53.455 100 54.4347 100 55.3928 99.9994L45.5131 99.9994Z" fill="#0077FF"/>
<path fill-rule="evenodd" clip-rule="evenodd" d="M0.45332 45.9994C19.5413 45.9993 31.4589 37.8045 41.9126 30.6162C50.0792 25.0007 57.3525 19.9994 66.4531 19.9994C79.9986 19.9994 91.8257 29.5768 98.0969 34.6552C98.9813 35.3713 99.7552 35.998 100.408 36.4957C100.453 39.9687 100.453 43.7884 100.453 48L100.453 52C100.453 74.6274 100.453 85.9411 93.4237 92.9706C86.7054 99.6888 76.0738 99.9862 55.3922 99.9994L45.5139 99.9994C24.8324 99.9862 14.2008 99.6888 7.48256 92.9706C0.453126 85.9411 0.453127 74.6274 0.453129 52L0.45313 48C0.45313 47.3231 0.45313 46.6563 0.45332 45.9994Z" fill="#F45FFF"/>
<path d="M77.9536 50.9751C77.9536 48.5036 79.9821 46.5001 82.4536 46.5001C84.9251 46.5001 86.9536 48.5036 86.9536 50.9751V69.0251C86.9536 71.4965 84.9251 73.5001 82.4536 73.5001C79.9821 73.5001 77.9536 71.4965 77.9536 69.0251V50.9751Z" fill="white"/>
<path d="M61.9541 39.4752C61.9541 37.0037 63.9826 35.0002 66.4541 35.0002C68.9256 35.0002 70.9541 37.0037 70.9541 39.4752V80.5252C70.9541 82.9967 68.9256 85.0002 66.4541 85.0002C63.9826 85.0002 61.9541 82.9967 61.9541 80.5252V39.4752Z" fill="white"/>
<path d="M45.9541 50.9751C45.9541 48.5036 47.9826 46.5001 50.4541 46.5001C52.9256 46.5001 54.9541 48.5036 54.9541 50.9751V69.0251C54.9541 71.4965 52.9256 73.5001 50.4541 73.5001C47.9826 73.5001 45.9541 71.4965 45.9541 69.0251V50.9751Z" fill="white"/>
<path d="M29.9521 57.4749C29.9521 55.0034 31.9807 52.9999 34.4521 52.9999C36.9236 52.9999 38.9521 55.0034 38.9521 57.4749V62.5249C38.9521 64.9964 36.9236 66.9999 34.4521 66.9999C31.9807 66.9999 29.9521 64.9964 29.9521 62.5249V57.4749Z" fill="white"/>
<path d="M13.9521 57.4749C13.9521 55.0034 15.9807 52.9999 18.4521 52.9999C20.9236 52.9999 22.9521 55.0034 22.9521 57.4749V62.5249C22.9521 64.9964 20.9236 66.9999 18.4521 66.9999C15.9807 66.9999 13.9521 64.9964 13.9521 62.5249V57.4749Z" fill="white"/>
</svg>
