<svg xmlns="http://www.w3.org/2000/svg" width="184" height="22" viewBox="0 0 184 22" fill="none">
<g clip-path="url(#clip0_1239_56063)">
<path d="M0.323253 8.5373C0.323253 10.6359 1.33311 11.8976 3.12979 13.1869L0 17.8427H2.58352L6.0754 12.6356L4.86383 11.8087C3.3904 10.8201 2.68375 10.032 2.68375 8.39822C2.68375 6.92479 3.71365 5.91619 5.69076 5.91619H6.7407V17.8452H9.14255V4.0769H5.67071C2.15878 4.0769 0.322 5.87359 0.322 8.5373H0.323253Z" fill="#FFBC0D"/>
<path d="M16.6314 11.8075H13.4828V7.87207H11.1211V17.8428H13.4828V13.6643H16.6314V17.8428H19.0132V7.87207H16.6314V11.8075Z" fill="#FFBC0D"/>
<path d="M47.9353 7.87207H45.5548L42.2446 12.474V7.87207H39.8828V17.8428H42.2446V12.9376L45.7151 17.8428H48.4002L44.6264 12.474L47.9353 7.87207Z" fill="#FFBC0D"/>
<path d="M53.0828 9.56731C53.9912 9.56731 54.8795 9.89056 55.3631 10.1725V8.19411C54.8582 7.91095 53.9912 7.70923 52.8397 7.70923C49.8127 7.70923 48.2578 9.84921 48.2578 12.8562C48.2578 16.1263 49.7713 17.9431 52.94 17.9431C54.01 17.9431 54.7767 17.7614 55.3619 17.3379V15.4009C54.7567 15.8244 54.0501 16.0875 53.0615 16.0875C51.3863 16.0875 50.6797 14.8158 50.6797 12.7973C50.6797 10.6573 51.548 9.56856 53.0815 9.56856L53.0828 9.56731Z" fill="#FFBC0D"/>
<path d="M28.5585 7.87207H21.6962V8.7203C21.6962 11.1622 21.5346 14.2908 20.7077 15.9659H19.9609V20.0229H22.1611V17.8428H27.4496V20.0229H29.6097V15.9659H28.5597V7.87207H28.5585ZM26.1967 15.9659H22.8865C23.5318 14.4524 23.7134 11.7473 23.7134 10.0121V9.7289H26.1955V15.9659H26.1967Z" fill="#FFBC0D"/>
<path d="M34.4139 7.71045C31.5685 7.71045 30.1953 9.89053 30.1953 12.8775C30.1953 16.2879 31.8905 17.943 34.8975 17.943C36.411 17.943 37.5211 17.6198 38.2077 17.1562V15.2392C37.481 15.7041 36.2494 16.0875 35.0992 16.0875C33.3677 16.0875 32.7074 15.2981 32.626 13.6856H38.2879V12.454C38.2879 9.00221 36.7744 7.71045 34.4126 7.71045H34.4139ZM34.3738 9.56727C35.5641 9.56727 35.9074 10.5157 35.9074 11.7474V11.9491H32.6235C32.6798 10.3854 33.2449 9.56727 34.3738 9.56727Z" fill="#FFBC0D"/>
<path d="M81.1901 8.3856L81.1043 7.959L77.4764 7.32521L79.5845 4.47313L79.3394 4.20499L76.2385 5.69197L76.6307 1.74294L76.3121 1.56011L74.4246 4.75346L72.3043 0H71.9366L72.4391 4.59501L67.1076 0.329086L66.6541 0.463157L70.76 5.61884L62.6341 2.91302L62.2664 3.32742L69.5221 7.45928L59.5087 8.28809L59.3984 8.90969L69.804 10.0432L61.1266 17.2222L61.4943 17.7219L71.8263 12.103L69.7795 22H70.4046L74.3633 12.6881L76.7778 19.9767L77.2068 19.6476L76.214 12.2371L79.9767 16.503L80.2218 16.113L77.3416 10.8233L81.3617 12.3102L81.3984 11.8593L77.7951 9.20222L81.1901 8.3856Z" fill="#FFBC0D"/>
<path d="M129.93 12.7082C131.778 12.336 132.666 11.4277 132.666 10.4755C132.666 8.47705 129.881 7.50854 126.207 7.50854C123.684 7.50854 121.787 7.99342 120.475 8.65872V10.8188C121.625 10.2136 123.522 9.62848 125.501 9.62848C126.914 9.62848 127.741 9.93169 127.741 10.6985C127.741 11.4653 127.034 11.7685 125.359 11.7685H123.059V13.9085H125.339C127.499 13.9085 128.044 14.2117 128.044 14.9784C128.044 15.625 127.217 16.1086 125.279 16.1086C122.635 16.1086 121.1 15.3017 120.172 14.8569V17.0771C120.979 17.562 122.857 18.1471 125.824 18.1471C130.466 18.1471 133.029 16.9355 133.029 14.9584C133.029 13.693 131.914 12.9926 129.93 12.7107V12.7082Z" fill="#FFBC0D"/>
<path d="M117.367 7.87207L113.969 14.1692L110.283 7.87207H104.793L111.328 18.7048L109.355 21.8384H112.16L114.925 17.2777L120.173 7.87207H117.367Z" fill="#FFBC0D"/>
<path d="M94.5674 11.8989L91.1282 4.0769H85.3359V17.8427H87.5361V7.71789L92.0566 17.8427H94.5599L99.0203 7.71538V17.8427H103.946V4.0769H97.9102L94.5674 11.8989Z" fill="#FFBC0D"/>
<path d="M168.654 7.87207H164.96L159.632 11.8275V7.87207H154.727V17.8428H159.632V13.6844L163.124 17.8428H169.441L163.733 11.4554L168.654 7.87207Z" fill="#FFBC0D"/>
<path d="M141.346 10.5959H139.328V7.87085H134.402V17.8416H141.325C145.018 17.8416 147.299 16.5498 147.299 14.148C147.299 11.9879 145.28 10.5959 141.345 10.5959H141.346ZM140.659 15.763H139.328V12.6745H140.659C141.729 12.6745 142.355 13.1795 142.355 14.2081C142.355 15.3984 141.81 15.7617 140.659 15.7617V15.763Z" fill="#FFBC0D"/>
<path d="M179.209 7.8921L179.1 9.14501C178.1 8.21911 176.612 7.73047 174.709 7.73047C171.358 7.73047 168.613 9.5472 168.613 12.9176C168.613 16.2879 171.217 18.1247 174.689 18.1247C176.556 18.1247 178.082 17.6273 179.11 16.6638L179.209 17.8415H183.933V7.8921H179.209ZM176.343 15.9045C174.667 15.9045 173.637 15.0613 173.637 12.8975C173.637 10.6009 174.707 9.95064 176.343 9.95064C177.836 9.95064 179.028 10.5796 179.028 12.8975C179.028 15.2154 178.019 15.9045 176.343 15.9045Z" fill="#FFBC0D"/>
<path d="M152.768 7.87207H147.863V17.8428H152.768V7.87207Z" fill="#FFBC0D"/>
</g>
<defs>
<clipPath id="clip0_1239_56063">
<rect width="183.932" height="22" fill="white"/>
</clipPath>
</defs>
</svg>