<?xml version="1.0" standalone="no"?>
<!DOCTYPE svg PUBLIC "-//W3C//DTD SVG 20010904//EN"
 "http://www.w3.org/TR/2001/REC-SVG-20010904/DTD/svg10.dtd">
<svg version="1.0" xmlns="http://www.w3.org/2000/svg"
 width="482.000000pt" height="121.000000pt" viewBox="0 0 482.000000 121.000000"
 preserveAspectRatio="xMidYMid meet">

<g transform="translate(0.000000,121.000000) scale(0.100000,-0.100000)"
fill="#000000" stroke="none">
<path d="M239 1196 c-94 -33 -175 -113 -209 -204 -20 -53 -21 -71 -18 -406 l3
-351 30 -53 c38 -71 112 -136 182 -162 54 -20 71 -21 402 -18 l346 3 53 30
c71 38 136 112 162 182 20 54 21 71 18 407 l-3 351 -30 53 c-38 70 -112 136
-181 161 -51 20 -76 21 -387 21 -245 -1 -341 -4 -368 -14z m731 -146 c22 -11
52 -39 67 -62 l28 -41 3 -333 c3 -320 2 -335 -18 -374 -20 -39 -72 -81 -116
-94 -20 -6 -23 -1 -34 61 -61 350 -323 623 -662 689 -49 9 -88 21 -88 26 0 5
9 26 20 48 20 38 57 72 101 89 13 5 167 10 342 10 300 1 320 0 357 -19z m-730
-296 c89 -21 213 -83 288 -145 34 -28 62 -54 62 -58 0 -4 19 -31 42 -61 51
-68 103 -179 123 -262 22 -95 28 -89 -82 -86 l-96 3 -14 59 c-26 115 -88 199
-234 319 -19 15 -67 38 -106 50 l-73 21 0 88 c0 99 -6 95 90 72z m-3 -344 c23
-10 62 -37 87 -60 48 -44 106 -147 106 -187 0 -22 -3 -23 -70 -23 -88 0 -139
24 -177 82 -24 36 -28 53 -32 131 l-3 89 23 -7 c13 -4 43 -15 66 -25z"/>
<path d="M1750 1001 c-116 -38 -110 -30 -110 -148 l0 -103 38 38 c54 54 124
85 199 90 122 8 183 -23 183 -92 0 -85 -49 -116 -180 -116 l-80 0 0 -65 0 -65
110 0 c61 0 110 -4 110 -9 0 -5 11 -12 25 -15 37 -10 59 -49 52 -97 -7 -50
-27 -74 -83 -95 -106 -40 -293 8 -364 94 l-30 37 0 -91 c0 -81 2 -93 23 -112
57 -54 193 -88 321 -80 214 14 333 148 285 323 -14 51 -43 83 -96 107 -24 10
-43 22 -43 26 0 4 16 20 36 36 71 57 93 155 52 236 -43 84 -132 120 -292 119
-69 0 -118 -6 -156 -18z"/>
<path d="M2420 595 l0 -415 199 0 c109 0 223 5 252 10 131 25 200 94 207 206
6 87 -12 147 -55 184 -18 17 -40 30 -48 30 -22 0 -19 6 24 49 48 48 65 104 56
176 -7 56 -26 92 -68 125 -54 43 -105 50 -344 50 l-223 0 0 -415z m440 260
c66 -34 57 -141 -14 -170 -24 -10 -73 -15 -156 -15 l-120 0 0 100 0 100 130 0
c96 0 139 -4 160 -15z m-2 -321 c4 -6 15 -13 24 -17 9 -3 25 -18 34 -32 25
-38 9 -110 -29 -139 -25 -19 -45 -21 -173 -24 l-144 -4 0 117 0 117 140 -4
c85 -2 144 -7 148 -14z"/>
<path d="M3158 978 c38 -64 210 -375 267 -483 31 -60 62 -116 67 -122 13 -16
-6 -41 -38 -53 -20 -8 -67 -1 -106 15 -16 6 -18 0 -18 -63 0 -80 7 -89 71 -98
98 -13 180 42 233 158 165 357 306 666 306 672 0 4 -35 6 -77 4 l-77 -3 -102
-223 c-56 -122 -104 -225 -107 -228 -2 -3 -62 99 -133 225 l-128 231 -89 0
-89 0 20 -32z"/>
<path d="M4060 595 l0 -415 75 0 75 0 0 180 0 180 69 0 c52 0 70 -4 75 -15 3
-8 67 -89 143 -180 l138 -165 93 0 c50 0 92 2 92 6 0 3 -62 79 -137 169 -145
172 -206 249 -211 265 -2 5 62 91 142 190 80 99 146 184 146 190 0 6 -34 10
-84 10 l-83 0 -129 -170 -129 -169 -62 -1 -63 0 0 170 0 170 -75 0 -75 0 0
-415z"/>
</g>
</svg>
