<svg width="12" height="12" viewBox="0 0 12 12" fill="none" xmlns="http://www.w3.org/2000/svg">
<path d="M3.75 4.125V3.375C3.75 2.77826 3.98705 2.20597 4.40901 1.78401C4.83097 1.36205 5.40326 1.125 6 1.125C6.59674 1.125 7.16903 1.36205 7.59099 1.78401C8.01295 2.20597 8.25 2.77826 8.25 3.375V4.125M1.875 4.125C1.77554 4.125 1.68016 4.16451 1.60984 4.23484C1.53951 4.30516 1.5 4.40054 1.5 4.5V9.5625C1.5 10.2712 2.10375 10.875 2.8125 10.875H9.1875C9.89625 10.875 10.5 10.3005 10.5 9.5918V4.5C10.5 4.40054 10.4605 4.30516 10.3902 4.23484C10.3198 4.16451 10.2245 4.125 10.125 4.125H1.875Z" stroke="black" stroke-width="0.75" stroke-linecap="round" stroke-linejoin="round"/>
</svg>
