<svg width="12" height="12" viewBox="0 0 12 12" fill="none" xmlns="http://www.w3.org/2000/svg">
<g clip-path="url(#clip0_14_34)">
<path d="M10.1016 7.51406C10.0781 7.42969 10.1297 7.3125 10.1789 7.22812C10.194 7.20301 10.2104 7.17876 10.2281 7.15547C10.6491 6.52989 10.8743 5.79311 10.875 5.03906C10.882 2.87813 9.0586 1.125 6.80391 1.125C4.8375 1.125 3.19688 2.46328 2.8125 4.23984C2.755 4.50316 2.72593 4.77189 2.72578 5.04141C2.72578 7.20469 4.47891 9.00469 6.7336 9.00469C7.09219 9.00469 7.575 8.89687 7.83985 8.82422C8.10469 8.75156 8.36719 8.65547 8.43516 8.62969C8.50483 8.60342 8.57867 8.58992 8.65313 8.58984C8.73437 8.58953 8.81485 8.60547 8.88985 8.63672L10.2188 9.10781C10.2479 9.12014 10.2787 9.12804 10.3102 9.13125C10.3599 9.13125 10.4076 9.1115 10.4427 9.07633C10.4779 9.04117 10.4977 8.99348 10.4977 8.94375C10.496 8.9223 10.4921 8.90108 10.4859 8.88047L10.1016 7.51406Z" stroke="black" stroke-width="0.75" stroke-miterlimit="10" stroke-linecap="round"/>
<path d="M1.55766 5.4375C1.25026 5.98974 1.10155 6.61624 1.12798 7.24772C1.15441 7.8792 1.35495 8.49108 1.70742 9.0157C1.76156 9.0975 1.79203 9.16078 1.78266 9.2032C1.77328 9.24563 1.50305 10.6533 1.50305 10.6533C1.49655 10.6862 1.49901 10.7203 1.51018 10.752C1.52136 10.7836 1.54083 10.8117 1.56656 10.8333C1.6009 10.8606 1.6436 10.8754 1.6875 10.875C1.71096 10.8751 1.73418 10.8703 1.7557 10.8609L3.07312 10.3453C3.1638 10.3096 3.26494 10.3113 3.35437 10.35C3.79828 10.523 4.28906 10.6313 4.78008 10.6313C5.43897 10.6319 6.08629 10.4582 6.65625 10.1276" stroke="black" stroke-width="0.75" stroke-miterlimit="10" stroke-linecap="round"/>
</g>
<defs>
<clipPath id="clip0_14_34">
<rect width="12" height="12" fill="white"/>
</clipPath>
</defs>
</svg>
