<svg width="12" height="12" viewBox="0 0 12 12" fill="none" xmlns="http://www.w3.org/2000/svg">
<path d="M7.38914 0.773438L2.25 7.125H5.25L4.51148 11.1851C4.51008 11.193 4.51044 11.2012 4.51254 11.209C4.51463 11.2168 4.51842 11.2241 4.52363 11.2303C4.52883 11.2365 4.53534 11.2415 4.54267 11.2449C4.55001 11.2483 4.558 11.25 4.56609 11.25C4.5747 11.25 4.58319 11.248 4.59088 11.2441C4.59857 11.2402 4.60525 11.2346 4.61039 11.2277L9.75 4.875H6.75L7.49203 0.814453C7.49303 0.806364 7.49229 0.798154 7.48987 0.790371C7.48745 0.782588 7.4834 0.775409 7.47799 0.769312C7.47258 0.763215 7.46594 0.758339 7.4585 0.755009C7.45106 0.75168 7.44299 0.749972 7.43484 0.75C7.42592 0.750036 7.41713 0.752177 7.40919 0.756249C7.40125 0.760322 7.39438 0.766211 7.38914 0.773438Z" stroke="black" stroke-width="0.75" stroke-linecap="round" stroke-linejoin="round"/>
</svg>
