<svg width="12" height="12" viewBox="0 0 12 12" fill="none" xmlns="http://www.w3.org/2000/svg">
<path d="M4.875 8.25H3.375C2.77826 8.25 2.20597 8.01295 1.78401 7.59099C1.36205 7.16903 1.125 6.59674 1.125 6C1.125 5.40326 1.36205 4.83097 1.78401 4.40901C2.20597 3.98705 2.77826 3.75 3.375 3.75H4.875M7.125 3.75H8.625C9.22174 3.75 9.79403 3.98705 10.216 4.40901C10.6379 4.83097 10.875 5.40326 10.875 6C10.875 6.59674 10.6379 7.16903 10.216 7.59099C9.79403 8.01295 9.22174 8.25 8.625 8.25H7.125M3.82711 6H8.21977" stroke="black" stroke-width="0.84375" stroke-linecap="round" stroke-linejoin="round"/>
</svg>
