<svg width="12" height="12" viewBox="0 0 12 12" fill="none" xmlns="http://www.w3.org/2000/svg">
<path d="M11.0625 2.25H9.9375C9.83395 2.25 9.75 2.33395 9.75 2.4375V9.5625C9.75 9.66605 9.83395 9.75 9.9375 9.75H11.0625C11.1661 9.75 11.25 9.66605 11.25 9.5625V2.4375C11.25 2.33395 11.1661 2.25 11.0625 2.25Z" stroke="black" stroke-width="0.75" stroke-linejoin="round"/>
<path d="M8.0625 4.125H6.9375C6.83395 4.125 6.75 4.20895 6.75 4.3125V9.5625C6.75 9.66605 6.83395 9.75 6.9375 9.75H8.0625C8.16605 9.75 8.25 9.66605 8.25 9.5625V4.3125C8.25 4.20895 8.16605 4.125 8.0625 4.125Z" stroke="black" stroke-width="0.75" stroke-linejoin="round"/>
<path d="M5.0625 5.625H3.9375C3.83395 5.625 3.75 5.70895 3.75 5.8125V9.5625C3.75 9.66605 3.83395 9.75 3.9375 9.75H5.0625C5.16605 9.75 5.25 9.66605 5.25 9.5625V5.8125C5.25 5.70895 5.16605 5.625 5.0625 5.625Z" stroke="black" stroke-width="0.75" stroke-linejoin="round"/>
<path d="M2.0625 7.125H0.9375C0.833947 7.125 0.75 7.20895 0.75 7.3125V9.5625C0.75 9.66605 0.833947 9.75 0.9375 9.75H2.0625C2.16605 9.75 2.25 9.66605 2.25 9.5625V7.3125C2.25 7.20895 2.16605 7.125 2.0625 7.125Z" stroke="black" stroke-width="0.75" stroke-linejoin="round"/>
</svg>
