<svg width="12" height="12" viewBox="0 0 12 12" fill="none" xmlns="http://www.w3.org/2000/svg">
<g clip-path="url(#clip0_14_21)">
<path d="M6.40734 8.63273C6.38836 8.4164 6.19969 8.24742 5.97258 8.24742C5.8747 8.24675 5.77944 8.27899 5.70208 8.33897C5.62472 8.39894 5.56976 8.48316 5.54602 8.57812L5.11945 10.6495C5.10536 10.7101 5.09805 10.772 5.09766 10.8342C5.09766 11.3013 5.48859 11.6259 5.97258 11.6259C6.45656 11.6259 6.84773 11.3013 6.84773 10.8342C6.84748 10.7594 6.83731 10.6849 6.8175 10.6127L6.40734 8.63273ZM9.63398 9.55921C9.59059 9.52119 9.54393 9.48707 9.49453 9.45726L7.86492 8.31843C7.70625 8.21882 7.5368 8.22164 7.41375 8.34187C7.36004 8.39299 7.32594 8.4613 7.31738 8.53495C7.30881 8.6086 7.32633 8.68292 7.36688 8.745L8.59734 10.3622C8.62544 10.4014 8.65681 10.4382 8.69109 10.4721C8.90438 10.7105 9.37734 10.7236 9.63727 10.4721C9.89367 10.2164 9.89062 9.76078 9.63398 9.55921ZM10.8586 7.87218H9.20813C9.10148 7.87218 9 7.9507 9 8.06343C9 8.17617 9.06914 8.24742 9.16219 8.27812L10.7191 8.75976C10.9453 8.8125 11.25 8.61093 11.25 8.35922C11.25 8.03906 11.0719 7.87218 10.8586 7.87218ZM3.00516 8.0625C3.00516 7.94531 2.89852 7.87125 2.78367 7.87125H1.1332C0.925312 7.87125 0.75 8.09578 0.75 8.3475C0.75 8.59922 1.04578 8.8125 1.27266 8.75976L2.85305 8.27812C2.95594 8.24742 3.00516 8.17968 3.00516 8.0625ZM4.13789 8.32031L2.50781 9.45422C2.45719 9.4827 2.41 9.51691 2.36719 9.55617C2.30509 9.61392 2.25557 9.68385 2.2217 9.7616C2.18783 9.83935 2.17036 9.92324 2.17036 10.008C2.17036 10.0928 2.18783 10.1767 2.2217 10.2545C2.25557 10.3322 2.30509 10.4022 2.36719 10.4599C2.49506 10.5807 2.66427 10.648 2.84016 10.648C3.01604 10.648 3.18526 10.5807 3.31313 10.4599C3.34797 10.4266 3.37937 10.3898 3.40688 10.3502L4.63828 8.74218C4.72031 8.6114 4.70672 8.44945 4.59141 8.34234C4.53062 8.28565 4.45171 8.25233 4.36868 8.24829C4.28566 8.24426 4.20389 8.26977 4.13789 8.32031Z" fill="none"/>
<path d="M8.625 2.93179C8.625 1.62632 7.4714 0.842106 6.41718 0.7507C6.3918 0.748488 6.36623 0.751475 6.34204 0.759476C6.31785 0.767478 6.29554 0.780326 6.27648 0.797237C6.25742 0.814149 6.242 0.834768 6.23118 0.857835C6.22035 0.880903 6.21434 0.905935 6.21351 0.931403C6.14039 2.71265 3.64992 3.5257 3.40406 5.11922C3.24 6.18328 3.79429 6.81539 4.2082 7.12968C4.25203 7.16299 4.30267 7.1862 4.35652 7.19765C4.41036 7.2091 4.46607 7.20851 4.51966 7.19593C4.57324 7.18334 4.62339 7.15907 4.6665 7.12485C4.70962 7.09063 4.74464 7.0473 4.76906 6.99797C5.2964 5.92312 6.51117 5.50992 7.34062 4.98375C8.34562 4.34625 8.625 3.66093 8.625 2.93179Z" stroke="none" stroke-width="0.75" stroke-miterlimit="10" stroke-linecap="round"/>
<path d="M5.625 2.24297C5.32453 1.70391 4.90992 1.51641 4.23844 1.50164C4.215 1.50033 4.19198 1.50818 4.17422 1.52353C4.15647 1.53888 4.14537 1.56053 4.14328 1.58391C4.12102 2.38594 3.375 2.63508 3.375 3.29836C3.375 3.75235 3.50133 3.97805 3.77719 4.21899M8.26055 4.18969C8.46211 4.52508 8.625 4.89469 8.625 5.31469C8.625 6.54563 7.62961 7.49672 6.40172 7.49672C5.83345 7.49716 5.28679 7.27896 4.875 6.88735" stroke="none" stroke-width="0.75" stroke-miterlimit="10" stroke-linecap="round"/>
</g>
<defs>
<clipPath id="clip0_14_21">
<rect width="12" height="12" fill="white"/>
</clipPath>
</defs>
</svg>
