<svg width="12" height="12" viewBox="0 0 12 12" fill="none" xmlns="http://www.w3.org/2000/svg">
<g clip-path="url(#clip0_14_29)">
<path d="M6.09188 6.16195L5.07187 3.51023C5.05657 3.47044 5.02956 3.43622 4.99442 3.41208C4.95927 3.38795 4.91764 3.37503 4.875 3.37503C4.83236 3.37503 4.79073 3.38795 4.75558 3.41208C4.72044 3.43622 4.69343 3.47044 4.67813 3.51023L3.65813 6.16195C3.64753 6.1895 3.63127 6.21453 3.6104 6.2354C3.58953 6.25627 3.5645 6.27253 3.53695 6.28312L0.885234 7.30313C0.845441 7.31843 0.81122 7.34544 0.787083 7.38058C0.762946 7.41573 0.750026 7.45736 0.750026 7.5C0.750026 7.54264 0.762946 7.58427 0.787083 7.61942C0.81122 7.65456 0.845441 7.68157 0.885234 7.69687L3.53695 8.71688C3.5645 8.72747 3.58953 8.74373 3.6104 8.7646C3.63127 8.78547 3.64753 8.8105 3.65813 8.83805L4.67813 11.4898C4.69343 11.5296 4.72044 11.5638 4.75558 11.5879C4.79073 11.6121 4.83236 11.625 4.875 11.625C4.91764 11.625 4.95927 11.6121 4.99442 11.5879C5.02956 11.5638 5.05657 11.5296 5.07187 11.4898L6.09188 8.83805C6.10247 8.8105 6.11873 8.78547 6.1396 8.7646C6.16047 8.74373 6.1855 8.72747 6.21305 8.71688L8.86477 7.69687C8.90456 7.68157 8.93878 7.65456 8.96292 7.61942C8.98705 7.58427 8.99997 7.54264 8.99997 7.5C8.99997 7.45736 8.98705 7.41573 8.96292 7.38058C8.93878 7.34544 8.90456 7.31843 8.86477 7.30313L6.21305 6.28312C6.1855 6.27253 6.16047 6.25627 6.1396 6.2354C6.11873 6.21453 6.10247 6.1895 6.09188 6.16195ZM2.53125 1.59375L2.0625 0.375L1.59375 1.59375L0.375 2.0625L1.59375 2.53125L2.0625 3.75L2.53125 2.53125L3.75 2.0625L2.53125 1.59375ZM10.0001 2.74992L9.375 1.125L8.74992 2.74992L7.125 3.375L8.74992 4.00008L9.375 5.625L10.0001 4.00008L11.625 3.375L10.0001 2.74992Z" stroke="none" stroke-width="0.75" stroke-linecap="round" stroke-linejoin="round"/>
</g>
<defs>
<clipPath id="clip0_14_29">
<rect width="12" height="12" fill="none"/>
</clipPath>
</defs>
</svg>
