<svg width="12" height="12" viewBox="0 0 12 12" fill="none" xmlns="http://www.w3.org/2000/svg">
<g clip-path="url(#clip0_13_2)">
<path d="M1.125 7.875V10.125C1.12587 10.4231 1.24467 10.7087 1.45546 10.9195C1.66625 11.1303 1.9519 11.2491 2.25 11.25H9.75C10.0481 11.2491 10.3337 11.1303 10.5445 10.9195C10.7553 10.7087 10.8741 10.4231 10.875 10.125V7.875" stroke="black" stroke-width="0.75" stroke-linejoin="round"/>
<path d="M1.125 7.875H4.5C4.5 8.27282 4.65804 8.65436 4.93934 8.93566C5.22064 9.21696 5.60218 9.375 6 9.375C6.39782 9.375 6.77936 9.21696 7.06066 8.93566C7.34196 8.65436 7.5 8.27282 7.5 7.875H10.875" stroke="black" stroke-width="0.75" stroke-linecap="round" stroke-linejoin="round"/>
<path d="M9 0.75H3C2.39062 0.75 1.99219 1.07812 1.875 1.6875L1.125 4.5V6.75C1.12587 7.0481 1.24467 7.33375 1.45546 7.54454C1.66625 7.75533 1.9519 7.87413 2.25 7.875H9.75C10.0481 7.87413 10.3337 7.75533 10.5445 7.54454C10.7553 7.33375 10.8741 7.0481 10.875 6.75V4.5L10.125 1.6875C10.0078 1.05469 9.58594 0.75 9 0.75Z" stroke="black" stroke-width="0.75" stroke-linejoin="round"/>
<path d="M1.125 4.5H4.5C4.5 4.89782 4.65804 5.27936 4.93934 5.56066C5.22064 5.84196 5.60218 6 6 6C6.39782 6 6.77936 5.84196 7.06066 5.56066C7.34196 5.27936 7.5 4.89782 7.5 4.5H10.875" stroke="black" stroke-width="0.75" stroke-linecap="round" stroke-linejoin="round"/>
</g>
<defs>
<clipPath id="clip0_13_2">
<rect width="12" height="12" fill="white"/>
</clipPath>
</defs>
</svg>
