<svg width="12" height="12" viewBox="0 0 12 12" fill="none" xmlns="http://www.w3.org/2000/svg">
<path d="M9.75 3.375H2.25C1.62868 3.375 1.125 3.87868 1.125 4.5V9C1.125 9.62132 1.62868 10.125 2.25 10.125H9.75C10.3713 10.125 10.875 9.62132 10.875 9V4.5C10.875 3.87868 10.3713 3.375 9.75 3.375Z" stroke="black" stroke-width="0.75" stroke-linejoin="round"/>
<path d="M9.64125 3.375V2.67188C9.64119 2.49942 9.60308 2.32911 9.52962 2.17309C9.45617 2.01706 9.34918 1.87917 9.21629 1.76926C9.08341 1.65934 8.92791 1.58011 8.76087 1.53721C8.59384 1.49431 8.4194 1.48881 8.25 1.52109L2.0775 2.57461C1.80945 2.62569 1.56763 2.76871 1.39375 2.97901C1.21986 3.18931 1.12482 3.45369 1.125 3.72656V4.875" stroke="black" stroke-width="0.75" stroke-linejoin="round"/>
<path d="M8.625 7.5C8.47666 7.5 8.33166 7.45601 8.20832 7.3736C8.08499 7.29119 7.98886 7.17406 7.93209 7.03701C7.87532 6.89997 7.86047 6.74917 7.88941 6.60368C7.91835 6.4582 7.98978 6.32456 8.09467 6.21967C8.19956 6.11478 8.3332 6.04335 8.47868 6.01441C8.62417 5.98547 8.77497 6.00032 8.91201 6.05709C9.04906 6.11386 9.16619 6.20999 9.2486 6.33332C9.33101 6.45666 9.375 6.60166 9.375 6.75C9.375 6.94891 9.29598 7.13968 9.15533 7.28033C9.01468 7.42098 8.82391 7.5 8.625 7.5Z" fill="black"/>
</svg>
