<svg width="12" height="12" viewBox="0 0 12 12" fill="none" xmlns="http://www.w3.org/2000/svg">
<path d="M3.79688 0.837891L1.58227 1.47305C1.29985 1.6207 1.03219 2.0332 0.855476 2.55937C0.71321 2.98594 0.630007 3.47109 0.599304 3.92578L3.20391 2.625L3.79688 0.837891ZM8.20313 0.840234L8.79844 2.625L11.4 3.92812C11.3695 3.47578 11.2852 2.98594 11.1445 2.56172C11.0109 2.16211 10.8258 1.82695 10.6172 1.62305C10.5539 1.55742 10.4883 1.5082 10.4203 1.47305L8.20313 0.840234ZM4.15079 1.10977L3.54844 2.925L1.3711 4.0125L1.7011 5.26641L3.78282 6.30703L6.00001 5.93437L8.21719 6.30703L10.2984 5.26641L10.6289 4.0125L8.45391 2.925L7.84923 1.11211H7.60313L6.21329 2.84531L6.21094 4.27734H5.78673L5.78907 2.84766L4.39923 1.10977H4.15079ZM1.84337 5.80547L2.36016 7.77187L5.78673 6.74531V6.40078L3.71485 6.74531L1.84337 5.80547ZM10.1578 5.80547L8.28282 6.74531L6.21094 6.40078V6.74531L9.63985 7.77187L10.1578 5.80547ZM5.78673 7.18125L5.0461 7.40625L4.22344 9.05156L5.78673 8.27109V7.18125ZM6.21094 7.18125V8.27109L7.77891 9.05391L6.95391 7.40625L6.21094 7.18125ZM4.49298 7.57031L2.46798 8.17969L3.06094 10.4367L4.49298 7.57031ZM7.50704 7.57266L8.93907 10.4344L9.53204 8.17969L7.50704 7.57266ZM6.21094 8.74453L6.21329 9.75703L8.57344 10.643L8.09532 9.68672L6.21094 8.74453ZM5.78673 8.74453L3.90704 9.68437L3.42657 10.643L5.78907 9.75703L5.78673 8.74453ZM5.78907 10.207L3.87657 10.9242L5.78907 11.1633V10.207ZM6.21329 10.207V11.1609L8.12813 10.9219L6.21329 10.207Z" fill="none"/>
</svg>
