<!-- icon666.com - MILLIONS vector ICONS FREE --><svg id="Flat_gradient" viewBox="0 0 64 64" xmlns="http://www.w3.org/2000/svg" xmlns:xlink="http://www.w3.org/1999/xlink" data-name="Flat gradient"><linearGradient id="linear-gradient" gradientUnits="userSpaceOnUse" x1="4" x2="60" y1="33.408" y2="33.408"><stop offset="0" stop-color="#ffa68d"></stop><stop offset="1" stop-color="#fd3a84"></stop></linearGradient><path d="m20.93 44.09a.99937.99937 0 0 1 -.85 1.53h-2.54v13.59a1.00291 1.00291 0 0 1 -1 1h-8a1.003 1.003 0 0 1 -1-1v-13.59h-2.54a.99938.99938 0 0 1 -.85-1.53l7.54-11.96a1.048 1.048 0 0 1 1.7 0zm11.92-26.34a1.0479 1.0479 0 0 0 -1.7 0l-7.54 11.96a.99942.99942 0 0 0 .85 1.53h2.54v27.97a1.003 1.003 0 0 0 1 1h8a1.003 1.003 0 0 0 1-1v-27.97h2.54a.99942.99942 0 0 0 .85-1.53zm27 " fill="url(#linear-gradient)"></path></svg>